# Blender v2.75 (sub 0) OBJ File: 'Camion.blend'
# www.blender.org
mtllib Camion.mtl
o Curve_Mesh
v 0.205089 -0.320641 -0.149947
v 0.248791 -0.433500 -0.149947
v 0.300118 -0.491876 -0.149947
v 0.348250 -0.512137 -0.149947
v 0.417069 -0.493665 -0.149947
v 0.492665 -0.422573 -0.149947
v 0.542979 -0.317297 -0.149947
v 0.650754 -0.308077 -0.149947
v 0.708189 -0.267504 -0.149947
v 0.727567 -0.207739 -0.149947
v 0.736150 0.421270 -0.149947
v 0.704668 0.465173 -0.149947
v 0.626148 0.486593 -0.149947
v -0.279555 0.465822 -0.149947
v -0.339107 0.440607 -0.149947
v -0.358023 0.415802 -0.149947
v -0.364186 0.280094 -0.149947
v -0.442922 0.274911 -0.149947
v -0.523251 0.225573 -0.149947
v -0.580138 0.137286 -0.149947
v -0.620642 0.042693 -0.149947
v -0.792356 0.014223 -0.149947
v -0.857145 -0.026493 -0.149947
v -0.891048 -0.112076 -0.149947
v -0.892666 -0.196900 -0.149947
v -0.860647 -0.321453 -0.149947
v -0.808435 -0.333178 -0.149947
v -0.739390 -0.328478 -0.149947
v -0.698789 -0.421644 -0.149947
v -0.636862 -0.493823 -0.149947
v -0.573693 -0.514839 -0.149947
v -0.510565 -0.493948 -0.149947
v -0.452254 -0.435423 -0.149947
v -0.393088 -0.316376 -0.149947
v 0.200403 -0.323901 0.150053
v 0.287787 -0.483747 0.150053
v 0.354910 -0.512526 0.150053
v 0.422768 -0.490230 0.150053
v 0.499009 -0.413559 0.150053
v 0.542262 -0.317796 0.150053
v 0.676502 -0.299148 0.150053
v 0.726988 -0.224368 0.150053
v 0.736023 0.423558 0.150053
v 0.701553 0.466972 0.150053
v 0.624312 0.486601 0.150053
v -0.279445 0.465783 0.150053
v -0.340896 0.439496 0.150053
v -0.358083 0.414764 0.150053
v -0.364178 0.280406 0.150053
v -0.448955 0.273097 0.150053
v -0.528772 0.219662 0.150053
v -0.617523 0.051137 0.150053
v -0.652387 0.035572 0.150053
v -0.780662 0.016618 0.150053
v -0.854615 -0.021640 0.150053
v -0.891907 -0.114713 0.150053
v -0.891246 -0.206022 0.150053
v -0.860266 -0.321769 0.150053
v -0.805311 -0.333272 0.150053
v -0.739398 -0.328449 0.150053
v -0.693589 -0.430077 0.150053
v -0.631005 -0.497640 0.150053
v -0.567643 -0.514628 0.150053
v -0.505155 -0.490329 0.150053
v -0.447662 -0.428896 0.150053
v -0.393800 -0.315757 0.150053
vt 0.401420 0.111995
vt 0.356023 0.242805
vt 0.354983 0.088944
vt 0.000000 0.050001
vt 0.008002 0.462434
vt 0.306828 0.004748
vt 0.009563 0.014277
vt 0.028997 0.000000
vt 0.029995 0.498230
vt 0.019063 0.489584
vt 0.089932 0.501218
vt 0.092119 0.537076
vt 0.113808 0.573719
vt 0.353364 0.515174
vt 0.152733 0.599740
vt 0.431648 0.568903
vt 0.399467 0.654513
vt 0.405873 0.542273
vt 0.206817 0.696536
vt 0.194463 0.618309
vt 0.358262 0.672875
vt 0.224718 0.726091
vt 0.262477 0.741643
vt 0.299943 0.742493
vt 0.440795 0.177873
vt 0.431783 0.199762
vt 0.432724 0.146512
vt 0.333203 0.013651
vt 0.351050 0.039858
vt 0.405931 0.223056
vt 0.360248 0.704321
vt 0.355001 0.728080
vt 0.431430 0.626411
vt 0.440795 0.597675
vt 0.838284 0.633033
vt 0.796028 0.652827
vt 0.798380 0.497158
vt 0.440795 0.691023
vt 0.449081 0.279482
vt 0.754945 0.737038
vt 0.449543 0.726174
vt 0.468754 0.741824
vt 0.460630 0.251474
vt 0.471537 0.243622
vt 0.530879 0.240707
vt 0.534023 0.202097
vt 0.557546 0.165697
vt 0.794185 0.226601
vt 0.631896 0.125111
vt 0.871184 0.175715
vt 0.844106 0.201958
vt 0.844380 0.089975
vt 0.638737 0.109219
vt 0.646980 0.050791
vt 0.799443 0.069222
vt 0.663804 0.017077
vt 0.704879 0.000000
vt 0.745212 0.000206
vt 0.881854 0.567316
vt 0.872074 0.598238
vt 0.869075 0.536782
vt 0.787925 0.713972
vt 0.882018 0.772313
vt 0.882013 0.745666
vt 0.999991 0.742613
vt 1.000000 0.770189
vt 0.796371 0.014193
vt 0.801507 0.039204
vt 0.874286 0.118403
vt 0.881854 0.147236
vt 0.881966 0.708061
vt 0.999940 0.704301
vt 0.131272 0.864113
vt 0.091545 0.864130
vt 0.088561 0.742513
vt 0.128510 0.742493
vt 0.881854 0.650147
vt 0.999834 0.650001
vt 0.440795 0.767905
vt 0.440798 0.743313
vt 0.558779 0.741824
vt 0.558775 0.767058
vt 0.165614 0.742512
vt 0.204029 0.742493
vt 0.241429 0.864127
vt 0.167901 0.864127
vt 0.999854 0.000000
vt 0.999835 0.032295
vt 0.881855 0.033154
vt 0.881872 0.001225
vt 0.882018 0.464613
vt 1.000000 0.466994
vt 0.332038 0.744027
vt 0.348010 0.865435
vt 0.331399 0.865673
vt 0.408657 0.742963
vt 0.404997 0.864645
vt 0.321968 0.742822
vt 0.331399 0.742930
vt 0.331399 0.864562
vt 0.318015 0.864411
vt 0.295672 0.742674
vt 0.246548 0.864106
vt 0.440795 0.864127
vt 0.558816 0.961174
vt 0.558841 0.933549
vt 0.676822 0.930588
vt 0.676800 0.959178
vt 0.999835 0.434553
vt 0.881854 0.434558
vt 0.558830 0.886381
vt 0.676807 0.881370
vt 0.676880 0.876188
vt 0.676822 0.837580
vt 0.794800 0.836409
vt 0.794864 0.878392
vt 0.558779 0.835793
vt 0.676760 0.836140
vt 0.999854 0.463651
vt 0.881874 0.464613
vt 0.676822 0.798983
vt 0.794804 0.794836
vt 0.558833 0.799058
vt 0.676822 0.788011
vt 0.676884 0.741951
vt 0.794864 0.741824
vt 0.794864 0.741853
vt 0.805628 0.741824
vt 0.806004 0.863443
vt 0.795255 0.863469
vt 0.881854 0.785096
vt 0.893917 0.785140
vt 0.894827 0.906762
vt 0.881862 0.906716
vt 0.865495 0.741850
vt 0.865275 0.863469
vt 0.558835 0.767672
vt 0.676794 0.747468
vt 0.916359 0.785186
vt 0.916359 0.906806
vt 0.088561 0.864298
vt 0.047010 0.864231
vt 0.043220 0.742603
vt 0.088561 0.742678
vt 0.014512 0.864122
vt 0.012755 0.742493
vt 0.881979 0.785096
vt 0.999965 0.784365
vt 0.558779 1.000000
vt 0.165559 0.864130
vt 0.245394 0.742510
vt 0.440795 0.742493
vt 0.440799 0.994097
vn 0.000000 0.000000 -1.000000
vn 0.000000 -0.000000 1.000000
vn 0.338500 -0.941000 -0.000500
vn 0.719400 -0.694500 -0.000200
vn -0.540100 0.841600 0.000400
vn 0.899100 -0.437700 -0.000600
vn 0.798000 0.602700 0.000200
vn -0.869800 0.493200 0.013500
vn 0.254800 0.967000 -0.000800
vn -0.010400 -0.999900 -0.004500
vn -0.407600 0.912900 -0.021500
vn -0.156100 0.987700 0.002600
vn -0.391500 -0.920100 0.008200
vn -0.876900 -0.479400 0.033700
vn -0.459500 0.888100 0.010800
vn 0.285800 -0.958300 -0.001000
vn -0.023000 0.999700 0.000100
vn 0.697400 -0.716700 0.000900
vn -0.929000 0.370200 0.001200
vn 0.906600 -0.422000 -0.002500
vn -0.391600 0.920100 0.000700
vn -1.000000 0.005400 0.001000
vn 0.114400 -0.993400 0.009200
vn -0.967300 -0.253600 -0.001100
vn -0.808100 0.589000 -0.000400
vn -0.211800 -0.977300 0.000600
vn -0.999000 0.045300 -0.000000
vn 0.828500 -0.559300 0.028500
vn 0.070400 -0.997500 -0.000500
vn -0.914100 -0.405500 0.002200
vn -0.746600 -0.665300 0.000200
vn -0.287700 -0.957700 -0.000000
vn 0.999900 -0.013900 0.000500
vn -0.076200 0.997100 0.001700
vn -0.919300 0.393600 -0.001500
vn -0.932400 -0.361000 -0.018500
vn -0.750900 -0.660300 -0.013000
vn -0.532100 0.846700 -0.009200
vn -0.022900 0.999700 -0.000200
vn 0.576800 -0.816500 -0.025200
vn 0.951100 -0.308400 -0.015300
vn 0.999900 -0.013600 0.001200
usemtl Material.001
s off
f 6/1/1 1/2/1 7/3/1
f 13/4/1 1/2/1 14/5/1
f 10/6/1 1/2/1 13/4/1
f 12/7/1 11/8/1 13/4/1
f 14/5/1 16/9/1 15/10/1
f 14/5/1 17/11/1 16/9/1
f 1/2/1 17/11/1 14/5/1
f 18/12/1 17/11/1 19/13/1
f 34/14/1 17/11/1 1/2/1
f 17/11/1 20/15/1 19/13/1
f 32/16/1 29/17/1 33/18/1
f 11/8/1 10/6/1 13/4/1
f 22/19/1 21/20/1 28/21/1
f 23/22/1 22/19/1 24/23/1
f 28/21/1 24/23/1 22/19/1
f 34/14/1 21/20/1 17/11/1
f 25/24/1 24/23/1 28/21/1
f 28/21/1 21/20/1 34/14/1
f 1/2/1 10/6/1 7/3/1
f 4/25/1 3/26/1 5/27/1
f 9/28/1 7/3/1 10/6/1
f 8/29/1 7/3/1 9/28/1
f 2/30/1 1/2/1 6/1/1
f 25/24/1 27/31/1 26/32/1
f 34/14/1 29/17/1 28/21/1
f 28/21/1 27/31/1 25/24/1
f 33/18/1 29/17/1 34/14/1
f 30/33/1 29/17/1 32/16/1
f 5/27/1 2/30/1 6/1/1
f 3/26/1 2/30/1 5/27/1
f 17/11/1 21/20/1 20/15/1
f 31/34/1 30/33/1 32/16/1
f 39/35/2 40/36/2 35/37/2
f 45/38/2 46/39/2 35/37/2
f 42/40/2 45/38/2 35/37/2
f 44/41/2 45/38/2 43/42/2
f 46/39/2 47/43/2 48/44/2
f 46/39/2 48/44/2 49/45/2
f 35/37/2 46/39/2 49/45/2
f 50/46/2 51/47/2 49/45/2
f 66/48/2 35/37/2 49/45/2
f 49/45/2 51/47/2 52/49/2
f 64/50/2 65/51/2 61/52/2
f 43/42/2 45/38/2 42/40/2
f 53/53/2 66/48/2 52/49/2
f 54/54/2 60/55/2 53/53/2
f 55/56/2 56/57/2 54/54/2
f 60/55/2 54/54/2 56/57/2
f 66/48/2 49/45/2 52/49/2
f 57/58/2 60/55/2 56/57/2
f 60/55/2 66/48/2 53/53/2
f 35/37/2 40/36/2 42/40/2
f 37/59/2 38/60/2 36/61/2
f 41/62/2 42/40/2 40/36/2
f 31/63/3 32/64/3 64/65/3 63/66/3
f 57/58/2 58/67/2 59/68/2
f 66/48/2 60/55/2 61/52/2
f 60/55/2 57/58/2 59/68/2
f 65/51/2 66/48/2 61/52/2
f 36/61/2 39/35/2 35/37/2
f 62/69/2 64/50/2 61/52/2
f 38/60/2 39/35/2 36/61/2
f 63/70/2 64/50/2 62/69/2
f 32/64/4 33/71/4 65/72/4 64/65/4
f 18/73/5 19/74/5 51/75/5 50/76/5
f 33/71/6 34/77/6 66/78/6 65/72/6
f 11/79/7 12/80/7 44/81/7 43/82/7
f 19/83/8 20/84/8 52/85/8 51/86/8
f 12/87/9 13/88/9 45/89/9 44/90/9
f 34/77/10 1/91/10 35/92/10 66/78/10
f 21/93/11 53/94/11 52/95/11
f 21/93/12 22/96/12 54/97/12 53/94/12
f 3/98/13 4/99/13 37/100/13 36/101/13
f 2/102/14 36/101/14 35/103/14
f 22/96/15 55/104/15 54/97/15
f 4/105/16 5/106/16 38/107/16 37/108/16
f 14/109/17 46/110/17 45/89/17
f 5/106/18 6/111/18 39/112/18 38/107/18
f 23/113/19 24/114/19 56/115/19 55/116/19
f 6/111/20 7/117/20 40/118/20 39/112/20
f 14/109/21 15/119/21 47/120/21 46/110/21
f 24/114/22 25/121/22 57/122/22 56/115/22
f 7/117/23 8/123/23 41/124/23 40/118/23
f 25/121/24 26/125/24 58/126/24 57/122/24
f 15/127/25 16/128/25 48/129/25 47/130/25
f 26/131/26 27/132/26 59/133/26 58/134/26
f 16/128/27 17/135/27 49/136/27 48/129/27
f 9/137/28 42/138/28 41/124/28
f 27/132/29 28/139/29 60/140/29 59/133/29
f 28/141/30 29/142/30 61/143/30 60/144/30
f 29/142/31 30/145/31 62/146/31 61/143/31
f 30/147/32 31/63/32 63/66/32 62/148/32
f 11/79/33 43/82/33 42/149/33
f 17/150/34 18/73/34 50/76/34 49/83/34
f 20/84/35 21/151/35 52/85/35
f 1/151/36 2/102/36 35/103/36
f 2/102/37 3/98/37 36/101/37
f 22/96/38 23/152/38 55/104/38
f 13/88/39 14/109/39 45/89/39
f 8/123/40 9/137/40 41/124/40
f 9/137/41 10/81/41 42/138/41
f 10/153/42 11/79/42 42/149/42