# Blender v2.75 (sub 0) OBJ File: 'Barca.blend'
# www.blender.org
mtllib Barca.mtl
o Curve_Mesh
v -1.033275 0.149998 0.026433
v -0.855265 0.149998 -0.156733
v -0.707508 0.149998 -0.266775
v -0.500758 0.149998 -0.375637
v -0.132122 0.149998 -0.490985
v 0.131224 0.149998 -0.500301
v 0.498081 0.149998 -0.461275
v 0.653186 0.149998 -0.421776
v 0.726877 0.149998 -0.385893
v 0.792798 0.149998 -0.323383
v 0.823518 0.149998 -0.251013
v 0.841998 0.149998 0.189284
v 0.826605 0.149998 0.243871
v 0.790642 0.149998 0.302572
v 0.728188 0.149998 0.363245
v 0.541974 0.149998 0.417086
v 0.295662 0.149998 0.463644
v -0.013607 0.149998 0.502688
v -0.281956 0.149998 0.471548
v -0.524200 0.149998 0.392545
v -0.818819 0.149998 0.230418
v -0.969070 0.149998 0.106031
v -0.915444 -0.150002 -0.101464
v -0.768394 -0.150003 -0.225486
v -0.619743 -0.150003 -0.317753
v -0.411266 -0.150001 -0.409095
v -0.116118 -0.150002 -0.493670
v 0.242810 -0.150002 -0.495098
v 0.618902 -0.150002 -0.435191
v 0.730830 -0.150002 -0.383147
v 0.794258 -0.150002 -0.321824
v 0.823656 -0.150002 -0.248946
v 0.842016 -0.150002 0.190117
v 0.824618 -0.150002 0.248329
v 0.787479 -0.150001 0.306431
v 0.728765 -0.150002 0.362452
v 0.578100 -0.150002 0.408339
v 0.345977 -0.150001 0.455586
v -0.011497 -0.150002 0.502988
v -0.283715 -0.150002 0.471066
v -0.547002 -0.150002 0.382632
v -0.836005 -0.150003 0.218352
v -0.975127 -0.150002 0.099841
v -1.031644 -0.150002 0.027712
vt 0.429542 0.830547
vt 0.407429 0.635079
vt 0.801886 0.701434
vt 0.448235 0.912673
vt 0.447304 0.294038
vt 0.795248 0.392112
vt 0.406724 0.493926
vt 0.464071 0.951307
vt 0.490593 0.985184
vt 0.520521 1.000000
vt 0.812476 0.535035
vt 0.787170 0.834308
vt 0.699730 1.000000
vt 0.759018 0.264236
vt 0.530199 0.099387
vt 0.601585 0.000000
vt 0.688121 0.110196
vt 0.488009 0.180939
vt 0.744883 0.969970
vt 0.721646 0.990536
vt 0.768470 0.935180
vt 0.635020 0.032575
vt 0.013186 0.727741
vt 0.000000 0.535356
vt 0.401206 0.693801
vt 0.937567 0.032415
vt 0.937572 0.001978
vt 1.000000 0.000000
vt 0.999995 0.030085
vt 0.370475 0.893749
vt 0.347428 0.952489
vt 0.321435 0.985064
vt 0.291325 0.999167
vt 0.343804 0.228185
vt 0.377375 0.341808
vt 0.057999 0.251442
vt 0.406724 0.501667
vt 0.017595 0.390377
vt 0.112619 0.999167
vt 0.028439 0.853032
vt 0.180172 0.028634
vt 0.210439 0.000000
vt 0.260949 0.065082
vt 0.308842 0.146561
vt 0.129657 0.100442
vt 0.089263 0.988552
vt 0.066287 0.967375
vt 0.044523 0.934697
vt 0.812550 0.971493
vt 0.812535 0.936962
vt 0.874962 0.937277
vt 0.874977 0.969721
vt 0.937431 0.681271
vt 0.875019 0.737005
vt 0.874977 0.554587
vt 0.937534 0.932741
vt 0.937562 0.963996
vt 0.875136 0.965522
vt 0.875095 0.917628
vt 0.874947 0.855786
vt 0.937495 0.860784
vt 0.812516 0.836296
vt 0.874928 0.730661
vt 0.812497 0.703587
vt 0.874906 0.538424
vt 0.937573 0.372025
vt 0.937565 0.336807
vt 0.999992 0.335934
vt 1.000000 0.370450
vt 0.812478 0.537308
vt 0.812476 0.394203
vt 0.874904 0.393262
vt 0.937562 0.297261
vt 0.999989 0.296152
vt 0.812485 0.265938
vt 0.874914 0.253901
vt 0.812511 0.111132
vt 0.874941 0.102141
vt 0.812534 0.032937
vt 0.874963 0.029797
vt 0.937562 0.000000
vt 0.875082 0.081704
vt 0.875135 0.000598
vt 0.812549 0.000000
vt 0.874977 0.000841
vt 0.937489 0.121726
vt 0.875036 0.177585
vt 0.937564 0.061205
vt 0.999992 0.060759
vt 0.937450 0.215570
vt 0.875006 0.268837
vt 0.937419 0.339154
vt 0.874985 0.390297
vt 0.937404 0.546014
vn 0.000000 1.000000 0.000000
vn 0.000000 -1.000000 0.000000
vn 0.847700 0.000100 0.530500
vn -0.000100 -1.000000 -0.000000
vn 0.000100 -1.000000 0.000000
vn 0.693700 0.000700 0.720300
vn -0.004000 -0.018800 -0.999800
vn 0.428100 -0.005600 -0.903700
vn 0.291300 -0.002000 0.956600
vn 0.157300 -0.022500 -0.987300
vn 0.199500 -0.004600 0.979900
vn 0.131400 -0.004600 0.991300
vn 0.691500 0.001100 -0.722300
vn -0.115900 -0.000400 0.993300
vn 0.924000 0.000100 -0.382400
vn -0.314400 -0.003600 0.949300
vn -0.488100 0.000600 0.872800
vn -0.642900 0.001600 0.765900
vn -0.743400 -0.006900 -0.668800
vn -0.782500 0.000700 0.622600
vn -0.644700 -0.011500 -0.764400
vn 0.999100 0.000100 -0.041900
vn -0.527300 -0.009900 -0.849600
vn 0.960200 -0.000700 0.279100
vn -0.401300 -0.017600 -0.915800
vn -0.275500 -0.006100 -0.961300
vn -0.035400 0.007100 -0.999300
vn 0.105800 0.022100 -0.994100
vn 0.277800 0.005400 0.960600
vn 0.246800 0.015100 -0.969000
vn 0.185700 0.004800 0.982600
vn 0.125300 0.001900 0.992100
vn -0.717000 0.015500 -0.696900
vn -0.597300 0.010800 -0.802000
vn -0.465900 0.014100 -0.884700
vn -0.298600 0.017400 -0.954200
usemtl Material.001
s off
f 7/1/1 6/2/1 17/3/1
f 8/4/1 7/1/1 17/3/1
f 4/5/1 19/6/1 5/7/1
f 9/8/1 8/4/1 17/3/1
f 10/9/1 9/8/1 17/3/1
f 11/10/1 10/9/1 17/3/1
f 5/7/1 19/6/1 18/11/1
f 11/10/1 16/12/1 12/13/1
f 4/5/1 20/14/1 19/6/1
f 2/15/1 1/16/1 21/17/1
f 3/18/1 21/17/1 20/14/1
f 12/13/1 14/19/1 13/20/1
f 16/12/1 15/21/1 12/13/1
f 3/18/1 20/14/1 4/5/1
f 15/21/1 14/19/1 12/13/1
f 21/17/1 1/16/1 22/22/1
f 18/11/1 6/2/1 5/7/1
f 16/12/1 11/10/1 17/3/1
f 2/15/1 21/17/1 3/18/1
f 17/3/1 6/2/1 18/11/1
f 38/23/2 39/24/2 28/25/2
f 13/26/3 14/27/3 35/28/3 34/29/3
f 29/30/2 38/23/2 28/25/2
f 30/31/2 38/23/2 29/30/2
f 31/32/2 38/23/2 30/31/2
f 32/33/2 38/23/2 31/32/2
f 25/34/2 26/35/2 41/36/2
f 27/37/2 39/24/2 40/38/2
f 32/33/2 33/39/2 37/40/2
f 26/35/2 40/38/2 41/36/2
f 43/41/2 44/42/2 23/43/2
f 24/44/2 41/36/2 42/45/2
f 23/43/2 24/44/2 42/45/2
f 33/39/4 34/46/4 35/47/4
f 33/39/2 36/48/2 37/40/2
f 24/44/2 25/34/2 41/36/2
f 38/23/2 32/33/2 37/40/2
f 36/48/5 33/39/5 35/47/5
f 42/45/2 43/41/2 23/43/2
f 39/24/2 27/37/2 28/25/2
f 26/35/2 27/37/2 40/38/2
f 14/49/6 15/50/6 36/51/6 35/52/6
f 6/53/7 28/54/7 27/55/7
f 8/56/8 9/57/8 30/58/8 29/59/8
f 15/50/9 37/60/9 36/51/9
f 7/61/10 29/59/10 28/54/10
f 16/62/11 38/63/11 37/60/11
f 17/64/12 39/65/12 38/63/12
f 9/66/13 10/67/13 31/68/13 30/69/13
f 18/70/14 19/71/14 40/72/14 39/65/14
f 10/67/15 11/73/15 32/74/15 31/68/15
f 19/71/16 20/75/16 41/76/16 40/72/16
f 20/75/17 21/77/17 42/78/17 41/76/17
f 21/77/18 22/79/18 43/80/18 42/78/18
f 1/81/19 23/82/19 44/83/19
f 22/79/20 1/84/20 44/85/20 43/80/20
f 2/86/21 24/87/21 23/82/21
f 11/73/22 12/88/22 33/89/22 32/74/22
f 3/90/23 25/91/23 24/87/23
f 12/88/24 13/26/24 34/29/24 33/89/24
f 4/92/25 26/93/25 25/91/25
f 5/94/26 27/55/26 26/93/26
f 5/94/27 6/53/27 27/55/27
f 6/53/28 7/61/28 28/54/28
f 15/50/29 16/62/29 37/60/29
f 7/61/30 8/56/30 29/59/30
f 16/62/31 17/64/31 38/63/31
f 17/64/32 18/70/32 39/65/32
f 1/81/33 2/86/33 23/82/33
f 2/86/34 3/90/34 24/87/34
f 3/90/35 4/92/35 25/91/35
f 4/92/36 5/94/36 26/93/36