# Blender v2.75 (sub 0) OBJ File: 'Caromato.blend'
# www.blender.org
mtllib Caromato.mtl
o Curve_Mesh
v -0.245300 -0.488678 0.150000
v -0.191669 -0.464139 0.150000
v -0.151734 -0.430929 0.150000
v -0.112038 -0.374443 0.150000
v -0.076422 -0.285326 0.150000
v 0.024827 -0.277387 0.150000
v 0.046836 -0.367096 0.150000
v 0.076164 -0.420565 0.150000
v 0.110451 -0.455351 0.150000
v 0.160051 -0.484244 0.150000
v 0.208178 -0.500339 0.150000
v 0.258356 -0.495195 0.150000
v 0.326931 -0.464447 0.150000
v 0.382936 -0.398026 0.150000
v 0.433095 -0.309221 0.150000
v 0.540705 -0.315198 0.150000
v 0.565482 -0.301840 0.150000
v 0.584115 -0.281045 0.150000
v 0.588673 -0.263120 0.150000
v 0.614378 -0.213669 0.150000
v 0.617459 0.281229 0.150000
v 0.597337 0.341171 0.150000
v 0.549811 0.400871 0.150000
v 0.519703 0.421611 0.150000
v 0.468877 0.438182 0.150000
v 0.408992 0.405591 0.150000
v 0.333934 0.340367 0.150000
v 0.294075 0.407163 0.150000
v 0.247707 0.449180 0.150000
v 0.190127 0.470403 0.150000
v 0.131490 0.427322 0.150000
v 0.054809 0.344018 0.150000
v 0.016426 0.396248 0.150000
v -0.026988 0.436372 0.150000
v -0.082816 0.456420 0.150000
v -0.125073 0.440178 0.150000
v -0.168138 0.408977 0.150000
v -0.216200 0.358127 0.150000
v -0.269021 0.431071 0.150000
v -0.328559 0.485225 0.150000
v -0.376733 0.501217 0.150000
v -0.431713 0.485991 0.150000
v -0.466329 0.465798 0.150000
v -0.494120 0.407439 0.150000
v -0.508649 -0.036554 0.150000
v -0.568511 -0.045970 0.150000
v -0.610346 -0.069508 0.150000
v -0.626873 -0.113435 0.150000
v -0.628118 -0.147974 0.150000
v -0.690904 -0.157856 0.150000
v -0.719166 -0.187346 0.150000
v -0.723704 -0.213932 0.150000
v -0.689345 -0.264445 0.150000
v -0.612080 -0.273836 0.150000
v -0.490861 -0.269767 0.150000
v -0.456712 -0.387308 0.150000
v -0.392743 -0.460511 0.150000
v -0.303748 -0.500509 0.150000
v -0.250871 -0.490389 -0.150000
v -0.195900 -0.466743 -0.150000
v -0.154862 -0.434203 -0.150000
v -0.114939 -0.380038 -0.150000
v -0.076338 -0.285320 -0.150000
v 0.024888 -0.277382 -0.150000
v 0.044994 -0.361804 -0.150000
v 0.087317 -0.436379 -0.150000
v 0.154915 -0.481933 -0.150000
v 0.208178 -0.500339 -0.150000
v 0.253294 -0.496311 -0.150000
v 0.321580 -0.468513 -0.150000
v 0.380487 -0.401945 -0.150000
v 0.433043 -0.309218 -0.150000
v 0.540705 -0.315198 -0.150000
v 0.563865 -0.302980 -0.150000
v 0.583370 -0.282405 -0.150000
v 0.588814 -0.262859 -0.150000
v 0.614379 -0.213669 -0.150000
v 0.617988 0.278034 -0.150000
v 0.598665 0.338956 -0.150000
v 0.550543 0.400042 -0.150000
v 0.521639 0.420738 -0.150000
v 0.469513 0.438107 -0.150000
v 0.412547 0.408228 -0.150000
v 0.333748 0.340290 -0.150000
v 0.297253 0.403106 -0.149999
v 0.251132 0.447012 -0.150000
v 0.191169 0.470579 -0.150000
v 0.135011 0.430668 -0.150000
v 0.054739 0.344049 -0.150000
v 0.019066 0.393083 -0.149999
v -0.023610 0.434091 -0.150000
v -0.080968 0.456514 -0.150000
v -0.122037 0.441836 -0.150000
v -0.165100 0.411638 -0.149999
v -0.216226 0.358334 -0.150000
v -0.266092 0.427400 -0.149999
v -0.324573 0.482733 -0.150000
v -0.376067 0.501437 -0.150000
v -0.429747 0.486669 -0.150000
v -0.463756 0.468281 -0.150000
v -0.493964 0.409867 -0.150000
v -0.508649 -0.036531 -0.150000
v -0.565794 -0.045312 -0.150000
v -0.607798 -0.066706 -0.150000
v -0.626284 -0.109964 -0.150000
v -0.628118 -0.147974 -0.150000
v -0.691055 -0.157855 -0.150000
v -0.718330 -0.186224 -0.150000
v -0.724299 -0.211262 -0.150000
v -0.690594 -0.263808 -0.150000
v -0.617193 -0.273771 -0.150000
v -0.490325 -0.269715 -0.150000
v -0.459888 -0.381168 -0.150000
v -0.398689 -0.456082 -0.150000
v -0.305443 -0.500377 -0.150000
vt 0.678437 0.618622
vt 0.713483 0.591482
vt 0.700677 0.611606
vt 0.970138 0.554583
vt 0.983492 0.486744
vt 0.981090 0.537951
vt 0.967388 0.335785
vt 0.966631 0.384558
vt 0.949990 0.405085
vt 0.967172 0.256903
vt 0.981150 0.199824
vt 0.990127 0.228969
vt 0.562830 0.356117
vt 0.604546 0.546915
vt 0.547152 0.526799
vt 0.975829 0.364028
vt 0.961555 0.175683
vt 0.948652 0.313160
vt 0.974808 0.064114
vt 0.963875 0.118618
vt 0.965331 0.048615
vt 0.661268 0.618308
vt 0.599258 0.606955
vt 0.929491 0.154103
vt 0.907798 0.011820
vt 0.608004 0.340847
vt 0.923466 0.427563
vt 0.923775 0.292705
vt 0.502562 0.419161
vt 0.512560 0.493083
vt 0.495116 0.447844
vt 0.564479 0.109871
vt 0.614673 0.290821
vt 0.570760 0.277480
vt 0.609890 0.087377
vt 0.654672 0.649197
vt 0.528690 0.243533
vt 0.515694 0.218142
vt 0.530016 0.135869
vt 0.662185 0.000000
vt 0.940435 0.566799
vt 0.719769 0.562032
vt 0.936994 0.023422
vt 0.512912 0.169067
vt 0.509006 0.193827
vt 0.601834 0.645548
vt 0.636958 0.011421
vt 0.627942 0.013199
vt 0.639280 0.662425
vt 0.625968 0.663959
vt 0.958230 0.455740
vt 0.545024 0.261485
vt 0.617122 0.021884
vt 0.609827 0.033819
vt 0.990127 0.511080
vt 0.533736 0.374290
vt 0.516182 0.393211
vt 0.981659 0.089782
vt 0.185033 0.045901
vt 0.206993 0.053906
vt 0.218741 0.074171
vt 0.476299 0.110939
vt 0.486340 0.127318
vt 0.487226 0.179613
vt 0.471216 0.330265
vt 0.456258 0.260663
vt 0.472402 0.281216
vt 0.473799 0.409066
vt 0.495116 0.435855
vt 0.485042 0.466246
vt 0.064845 0.306924
vt 0.054973 0.135789
vt 0.109447 0.117677
vt 0.480793 0.301199
vt 0.464504 0.490316
vt 0.452023 0.352548
vt 0.479308 0.601182
vt 0.469820 0.616083
vt 0.470157 0.547387
vt 0.166126 0.046017
vt 0.104010 0.054834
vt 0.434325 0.510121
vt 0.411110 0.652843
vt 0.112878 0.323521
vt 0.428659 0.371573
vt 0.428433 0.236733
vt 0.006428 0.242453
vt 0.000000 0.215643
vt 0.019459 0.168178
vt 0.067347 0.553349
vt 0.078207 0.385792
vt 0.119548 0.373536
vt 0.114770 0.576925
vt 0.159525 0.015054
vt 0.042351 0.408806
vt 0.032731 0.525916
vt 0.021575 0.443578
vt 0.167068 0.664325
vt 0.446503 0.097526
vt 0.224640 0.102290
vt 0.440813 0.641610
vt 0.017097 0.492783
vt 0.013881 0.470504
vt 0.106972 0.018143
vt 0.141974 0.652968
vt 0.132130 0.650794
vt 0.132131 0.000000
vt 0.144714 0.002286
vt 0.461352 0.210125
vt 0.121395 0.641671
vt 0.114708 0.630509
vt 0.495116 0.153556
vt 0.036894 0.288577
vt 0.019643 0.269091
vt 0.972907 0.790621
vt 1.000000 0.790622
vt 1.000000 0.917278
vt 0.974195 0.917278
vt 0.486518 0.574847
vt 0.368476 0.731560
vt 0.368468 0.760706
vt 0.241832 0.761500
vt 0.241840 0.734296
vt 0.949164 0.790620
vt 0.950991 0.917277
vt 0.621776 0.663959
vt 0.621766 0.684761
vt 0.495131 0.685632
vt 0.495141 0.664143
vt 0.368480 0.704693
vt 0.241845 0.706771
vt 0.368480 0.684554
vt 0.241845 0.686090
vt 0.929965 0.790618
vt 0.931183 0.917275
vt 0.368475 0.664325
vt 0.241840 0.665770
vt 0.368432 0.934091
vt 0.352295 0.934091
vt 0.350792 0.807434
vt 0.368480 0.807434
vt 0.881788 0.790616
vt 0.848114 0.790617
vt 0.847876 0.663960
vt 0.879590 0.663959
vt 0.138457 0.790982
vt 0.111286 0.790982
vt 0.109833 0.664325
vt 0.138506 0.664325
vt 0.930906 0.790617
vt 0.931003 0.663960
vt 0.493334 0.999802
vt 0.442965 0.999816
vt 0.442977 0.873159
vt 0.493334 0.873146
vt 0.959422 0.790618
vt 0.931003 0.790618
vt 0.959485 0.663961
vt 0.187107 0.917643
vt 0.148500 0.917648
vt 0.148507 0.790991
vt 0.184542 0.790987
vt 0.217228 0.917643
vt 0.215378 0.790986
vt 0.979314 0.790618
vt 0.978658 0.663961
vt 0.799889 0.790633
vt 0.845663 0.790627
vt 0.845663 0.917283
vt 0.802679 0.917289
vt 0.241804 0.917648
vt 0.241579 0.790991
vt 0.136626 0.791088
vt 0.148500 0.791119
vt 0.148500 0.917776
vt 0.137577 0.917748
vt 0.770127 0.790628
vt 0.760953 0.917283
vt 0.107493 0.790986
vt 0.107582 0.917645
vt 0.050251 0.917651
vt 0.014111 0.917652
vt 0.013634 0.790995
vt 0.047864 0.790995
vt 0.621787 0.699649
vt 0.621798 0.675263
vt 0.748440 0.663959
vt 0.748423 0.697138
vt 0.621779 0.723417
vt 0.748414 0.723438
vt 0.808959 0.663959
vt 0.847258 0.663961
vt 0.847875 0.790618
vt 0.811501 0.790616
vt 0.621776 0.748395
vt 0.748411 0.745891
vt 0.105158 0.917652
vt 0.105176 0.790995
vt 0.621777 0.782742
vt 0.748412 0.780068
vt 0.748704 0.663961
vt 0.748440 0.790618
vt 0.877828 0.917276
vt 0.875778 0.790619
vt 0.621788 0.811163
vt 0.748422 0.809931
vt 0.906355 0.917275
vt 0.904469 0.790618
vt 0.621804 0.836879
vt 0.748440 0.836874
vt 0.060788 0.790982
vt 0.000000 0.790994
vt 0.000036 0.664338
vt 0.057378 0.664325
vt 0.929965 0.917279
vt 0.929483 0.790622
vt 0.102151 0.664336
vt 0.264383 0.934099
vt 0.242537 0.934091
vt 0.241804 0.807434
vt 0.262722 0.807441
vt 0.368442 0.804566
vt 0.621794 0.890292
vt 0.748429 0.890313
vt 0.290801 0.934109
vt 0.288854 0.807452
vt 0.621795 0.902723
vt 0.748430 0.901930
vt 0.324829 0.934122
vt 0.324829 0.807465
vt 0.183212 0.790983
vt 0.138586 0.664329
vt 0.180876 0.664326
vt 0.621798 0.912167
vt 0.748433 0.911805
vt 0.621774 0.987484
vt 0.621776 0.993664
vt 0.495141 0.994002
vt 0.495139 0.987392
vt 0.221973 0.790982
vt 0.219835 0.664325
vt 0.241804 0.790986
vt 0.241700 0.664329
vt 0.416216 0.873273
vt 0.442965 0.873343
vt 0.442965 1.000000
vt 0.416876 0.999932
vt 0.396367 0.873221
vt 0.397787 0.999882
vt 0.621768 0.974033
vt 0.495132 0.974011
vt 0.621751 0.769746
vt 0.495116 0.771193
vt 0.368480 0.873146
vt 0.368898 0.999804
vt 0.621753 0.739384
vt 0.495118 0.740645
vt 0.495116 0.664362
vt 0.495116 0.872069
vt 0.621761 0.701611
vt 0.495125 0.702133
vn -0.000000 0.000000 1.000000
vn 0.000000 -0.000000 -1.000000
vn -0.153700 0.988100 0.000400
vn 0.189600 -0.981900 0.000300
vn -0.472400 0.881400 0.000900
vn 0.313100 0.949700 -0.000200
vn 0.405600 -0.914100 -0.000100
vn 0.630400 -0.776300 -0.000100
vn -0.928000 0.372700 -0.001000
vn 0.811700 -0.584100 0.000500
vn -0.999100 0.042400 -0.000700
vn -0.471500 0.881900 0.000500
vn 0.927300 -0.374400 -0.000900
vn -0.654400 0.756100 -0.000400
vn 0.078200 -0.996900 0.000000
vn -0.155300 0.987900 0.000000
vn 0.861600 0.507600 0.000800
vn 0.680600 0.732600 -0.000100
vn -0.721400 0.692500 0.000500
vn -0.972000 -0.235100 0.000800
vn 0.356100 0.934500 -0.000500
vn -0.979900 0.199400 0.000900
vn -0.872700 -0.488300 -0.005000
vn -0.834400 -0.551100 -0.000500
vn -0.585900 0.810400 0.000300
vn -0.536200 -0.844100 -0.004700
vn -0.322100 -0.946700 -0.000900
vn -0.127400 -0.991900 0.000200
vn 0.095800 -0.995400 0.001000
vn -0.734600 0.678500 -0.000400
vn 0.393300 -0.919400 0.001100
vn 0.032700 -0.999500 -0.000400
vn 0.807200 0.590300 0.000400
vn 0.756700 -0.653800 -0.001100
vn 0.685800 0.727800 0.000300
vn 0.870300 -0.492500 -0.000400
vn -0.962500 -0.271500 0.001400
vn 0.351300 0.936300 -0.000400
vn -0.763800 -0.645500 0.000200
vn -0.347900 0.937500 -0.000100
vn -0.419800 -0.907600 -0.001600
vn -0.055500 -0.998500 0.000000
vn -0.580500 0.814300 -0.000000
vn 0.470700 -0.882300 0.000400
vn -0.724200 0.689600 -0.000300
vn 0.810300 0.586000 0.000500
vn 0.735200 -0.677800 -0.000100
vn 0.966200 -0.257900 -0.000500
vn 0.680100 0.733100 0.000300
vn 0.328800 0.944400 -0.001000
vn -0.266100 0.964000 0.000300
vn -0.490100 0.871700 0.000900
vn 0.887300 -0.461200 0.000000
vn 1.000000 -0.006800 0.000900
vn -0.895600 0.444800 -0.000400
vn 0.950700 0.310300 0.000100
vn -0.999500 0.032800 -0.000100
vn 0.784000 0.620800 -0.000500
vn 0.574700 0.818400 0.000200
vn -0.712200 -0.701900 0.010500
usemtl Material.001
s off
f 48/1/1 46/2/1 47/3/1
f 43/4/1 40/5/1 42/6/1
f 34/7/1 36/8/1 37/9/1
f 31/10/1 29/11/1 30/12/1
f 4/13/1 55/14/1 56/15/1
f 34/7/1 35/16/1 36/8/1
f 31/10/1 28/17/1 29/11/1
f 34/7/1 37/9/1 33/18/1
f 24/19/1 26/20/1 23/21/1
f 49/22/1 54/23/1 55/14/1
f 27/24/1 21/25/1 26/20/1
f 28/17/1 31/10/1 27/24/1
f 55/14/1 4/13/1 5/26/1
f 33/18/1 38/27/1 32/28/1
f 1/29/1 57/30/1 58/31/1
f 14/32/1 6/33/1 7/34/1
f 32/28/1 27/24/1 31/10/1
f 15/35/1 6/33/1 14/32/1
f 54/23/1 49/22/1 50/36/1
f 9/37/1 10/38/1 13/39/1
f 27/24/1 20/40/1 21/25/1
f 27/24/1 15/35/1 20/40/1
f 44/41/1 45/42/1 38/27/1
f 26/20/1 22/43/1 23/21/1
f 6/33/1 27/24/1 32/28/1
f 12/44/1 10/38/1 11/45/1
f 49/22/1 45/42/1 46/2/1
f 49/22/1 46/2/1 48/1/1
f 43/4/1 44/41/1 40/5/1
f 54/23/1 50/36/1 53/46/1
f 5/26/1 38/27/1 45/42/1
f 19/47/1 20/40/1 15/35/1
f 18/48/1 19/47/1 15/35/1
f 6/33/1 15/35/1 27/24/1
f 5/26/1 32/28/1 38/27/1
f 53/46/1 51/49/1 52/50/1
f 53/46/1 50/36/1 51/49/1
f 45/42/1 55/14/1 5/26/1
f 26/20/1 21/25/1 22/43/1
f 55/14/1 45/42/1 49/22/1
f 39/51/1 44/41/1 38/27/1
f 14/32/1 7/34/1 8/52/1
f 17/53/1 18/48/1 15/35/1
f 14/32/1 9/37/1 13/39/1
f 15/35/1 16/54/1 17/53/1
f 40/5/1 41/55/1 42/6/1
f 33/18/1 37/9/1 38/27/1
f 40/5/1 44/41/1 39/51/1
f 56/15/1 3/56/1 4/13/1
f 14/32/1 8/52/1 9/37/1
f 57/30/1 3/56/1 56/15/1
f 57/30/1 2/57/1 3/56/1
f 6/33/1 32/28/1 5/26/1
f 2/57/1 57/30/1 1/29/1
f 26/20/1 24/19/1 25/58/1
f 10/38/1 12/44/1 13/39/1
f 105/59/2 104/60/2 103/61/2
f 100/62/2 99/63/2 97/64/2
f 91/65/2 94/66/2 93/67/2
f 88/68/2 87/69/2 86/70/2
f 62/71/2 113/72/2 112/73/2
f 91/65/2 93/67/2 92/74/2
f 88/68/2 86/70/2 85/75/2
f 91/65/2 90/76/2 94/66/2
f 81/77/2 80/78/2 83/79/2
f 106/80/2 112/73/2 111/81/2
f 84/82/2 83/79/2 78/83/2
f 85/75/2 84/82/2 88/68/2
f 112/73/2 63/84/2 62/71/2
f 90/76/2 89/85/2 95/86/2
f 59/87/2 115/88/2 114/89/2
f 71/90/2 65/91/2 64/92/2
f 89/85/2 88/68/2 84/82/2
f 72/93/2 71/90/2 64/92/2
f 111/81/2 107/94/2 106/80/2
f 66/95/2 70/96/2 67/97/2
f 84/82/2 78/83/2 77/98/2
f 84/82/2 77/98/2 72/93/2
f 101/99/2 95/86/2 102/100/2
f 83/79/2 80/78/2 79/101/2
f 64/92/2 89/85/2 84/82/2
f 69/102/2 68/103/2 67/97/2
f 106/80/2 103/61/2 102/100/2
f 106/80/2 105/59/2 103/61/2
f 100/62/2 97/64/2 101/99/2
f 111/81/2 110/104/2 107/94/2
f 63/84/2 102/100/2 95/86/2
f 76/105/2 72/93/2 77/98/2
f 75/106/2 72/93/2 76/105/2
f 64/92/2 84/82/2 72/93/2
f 63/84/2 95/86/2 89/85/2
f 110/104/2 109/107/2 108/108/2
f 110/104/2 108/108/2 107/94/2
f 102/100/2 63/84/2 112/73/2
f 83/79/2 79/101/2 78/83/2
f 112/73/2 106/80/2 102/100/2
f 96/109/2 95/86/2 101/99/2
f 71/90/2 66/95/2 65/91/2
f 74/110/2 72/93/2 75/106/2
f 71/90/2 70/96/2 66/95/2
f 72/93/2 74/110/2 73/111/2
f 97/64/2 99/63/2 98/112/2
f 90/76/2 95/86/2 94/66/2
f 97/64/2 96/109/2 101/99/2
f 113/72/2 62/71/2 61/113/2
f 114/89/2 113/72/2 61/113/2
f 114/89/2 61/113/2 60/114/2
f 46/115/3 45/116/3 102/117/3 103/118/3
f 64/92/2 63/84/2 89/85/2
f 60/114/2 59/87/2 114/89/2
f 83/79/2 82/119/2 81/77/2
f 67/97/2 70/96/2 69/102/2
f 1/120/4 58/121/4 115/122/4 59/123/4
f 47/124/5 46/115/5 103/118/5 104/125/5
f 25/126/6 24/127/6 81/128/6 82/129/6
f 2/130/7 1/120/7 59/123/7 60/131/7
f 3/132/8 2/130/8 60/131/8 61/133/8
f 48/134/9 47/124/9 104/125/9 105/135/9
f 4/136/10 3/132/10 61/133/10 62/137/10
f 49/138/11 48/139/11 105/140/11 106/141/11
f 26/142/12 25/143/12 82/144/12 83/145/12
f 5/146/13 4/147/13 62/148/13 63/149/13
f 27/150/14 26/142/14 83/145/14 84/151/14
f 6/152/15 5/153/15 63/154/15 64/155/15
f 50/156/16 49/157/16 106/151/16 107/158/16
f 28/159/17 27/160/17 84/161/17 85/162/17
f 29/163/18 28/159/18 85/162/18 86/164/18
f 51/165/19 50/156/19 107/158/19 108/166/19
f 7/167/20 6/168/20 64/169/20 65/170/20
f 30/171/21 29/163/21 86/164/21 87/172/21
f 52/173/22 51/174/22 108/175/22 109/176/22
f 8/177/23 7/167/23 65/170/23 66/178/23
f 53/179/24 52/173/24 109/176/24 110/180/24
f 31/181/25 30/182/25 87/183/25 88/184/25
f 10/185/26 9/186/26 66/187/26 67/188/26
f 11/189/27 10/185/27 67/188/27 68/190/27
f 54/191/28 53/192/28 110/193/28 111/194/28
f 12/195/29 11/189/29 68/190/29 69/196/29
f 32/197/30 31/181/30 88/184/30 89/198/30
f 13/199/31 12/195/31 69/196/31 70/200/31
f 55/201/32 54/191/32 111/194/32 112/202/32
f 33/203/33 32/169/33 89/168/33 90/204/33
f 14/205/34 13/199/34 70/200/34 71/206/34
f 34/207/35 33/203/35 90/204/35 91/208/35
f 15/209/36 14/205/36 71/206/36 72/210/36
f 56/211/37 55/212/37 112/213/37 113/214/37
f 35/215/38 34/207/38 91/208/38 92/216/38
f 57/198/39 56/211/39 113/214/39 114/217/39
f 36/218/40 35/219/40 92/220/40 93/221/40
f 58/121/41 57/222/41 114/220/41 115/122/41
f 16/223/42 15/209/42 72/210/42 73/224/42
f 37/225/43 36/218/43 93/221/43 94/226/43
f 17/227/44 16/223/44 73/224/44 74/228/44
f 38/229/45 37/225/45 94/226/45 95/230/45
f 39/231/46 38/146/46 95/232/46 96/233/46
f 18/234/47 17/227/47 74/228/47 75/235/47
f 19/236/48 18/237/48 75/238/48 76/239/48
f 40/240/49 39/231/49 96/233/49 97/241/49
f 41/242/50 40/240/50 97/241/50 98/243/50
f 42/244/51 41/245/51 98/246/51 99/247/51
f 43/248/52 42/244/52 99/247/52 100/249/52
f 20/250/53 76/239/53 77/251/53
f 21/252/54 20/250/54 77/251/54 78/253/54
f 44/254/55 43/248/55 100/249/55 101/255/55
f 22/256/56 21/252/56 78/253/56 79/257/56
f 45/258/57 44/259/57 101/254/57 102/136/57
f 23/260/58 22/256/58 79/257/58 80/261/58
f 24/127/59 23/260/59 80/261/59 81/128/59
f 9/202/60 8/177/60 66/178/60
f 20/250/53 19/236/53 76/239/53