# Blender v2.75 (sub 0) OBJ File: 'Balsa.blend'
# www.blender.org
mtllib Balsa.mtl
o Curve_Mesh
v -0.879838 -0.149925 0.494936
v 0.872902 -0.149925 0.477464
v 0.935312 -0.149925 0.422367
v 0.954419 -0.149925 0.318341
v 0.850334 -0.149925 0.201316
v 0.892644 -0.149925 0.121520
v 0.885776 -0.149925 0.055649
v 0.856612 -0.149925 -0.028757
v 0.927264 -0.149925 -0.071731
v 0.951183 -0.149925 -0.122028
v 0.950580 -0.149925 -0.192502
v 0.929820 -0.149925 -0.234927
v 0.828983 -0.149925 -0.317306
v 0.869225 -0.149925 -0.407831
v 0.856818 -0.149925 -0.476735
v 0.829093 -0.149925 -0.498108
v 0.746493 -0.149925 -0.498449
v 0.651689 -0.149925 -0.498839
v 0.528727 -0.149925 -0.499346
v 0.383237 -0.149925 -0.499946
v 0.220851 -0.149925 -0.500616
v 0.047202 -0.149925 -0.501332
v -0.132080 -0.149925 -0.502071
v -0.311361 -0.149925 -0.502810
v -0.485011 -0.149925 -0.503526
v -0.647396 -0.149925 -0.504195
v -0.797972 -0.149925 -0.503527
v -0.840013 -0.149925 -0.463291
v -0.855952 -0.149925 -0.421261
v -0.858388 -0.149925 -0.364548
v -0.860576 -0.149925 -0.308756
v -0.863116 -0.149925 -0.243996
v -0.926658 -0.149925 -0.213903
v -0.938818 -0.149925 -0.169078
v -0.947289 -0.149925 -0.115043
v -0.941281 -0.149925 -0.055837
v -0.926656 -0.149925 -0.013291
v -0.863116 -0.149925 0.043552
v -0.868347 -0.149925 0.215693
v -0.936323 -0.149924 0.289082
v -0.955610 -0.149925 0.375322
v -0.936516 -0.149925 0.452816
v 0.879523 0.150075 0.473933
v 0.929324 0.150076 0.430059
v 0.946585 0.150075 0.386191
v 0.956919 0.150075 0.319518
v 0.851186 0.150075 0.201908
v 0.893178 0.150075 0.116399
v 0.884656 0.150075 0.051456
v 0.856763 0.150075 -0.028379
v 0.929861 0.150075 -0.074570
v 0.951739 0.150075 -0.126814
v 0.951795 0.150075 -0.199380
v 0.918092 0.150075 -0.245758
v 0.828975 0.150075 -0.317288
v 0.869225 0.150075 -0.407831
v 0.856251 0.150075 -0.477339
v 0.829093 0.150075 -0.498108
v 0.746493 0.150075 -0.498449
v 0.651689 0.150075 -0.498839
v 0.528727 0.150075 -0.499346
v 0.383237 0.150075 -0.499946
v 0.220851 0.150075 -0.500616
v 0.047202 0.150075 -0.501332
v -0.132080 0.150075 -0.502071
v -0.311361 0.150075 -0.502810
v -0.485011 0.150075 -0.503526
v -0.647396 0.150075 -0.504195
v -0.800539 0.150075 -0.501914
v -0.853362 0.150075 -0.441525
v -0.859052 0.150075 -0.347624
v -0.863116 0.150075 -0.243996
v -0.926658 0.150075 -0.213903
v -0.943807 0.150075 -0.148219
v -0.946334 0.150075 -0.086944
v -0.929052 0.150075 -0.015474
v -0.863116 0.150075 0.043552
v -0.871280 0.150075 0.217662
v -0.938414 0.150075 0.293160
v -0.957555 0.150075 0.373549
v -0.946792 0.150075 0.436637
v -0.884003 0.150075 0.494297
vt 0.999630 0.431875
vt 1.000000 0.565202
vt 0.999570 0.501055
vt 0.999693 0.357896
vt 0.999759 0.281518
vt 0.999824 0.205141
vt 0.999888 0.131162
vt 1.000000 0.000000
vt 0.999947 0.061982
vt 0.000000 0.000000
vt 0.734373 0.051870
vt 0.749378 0.069906
vt 0.674901 0.762418
vt 0.734740 0.774775
vt 0.708811 0.779845
vt 0.718621 0.044948
vt 0.697314 0.043733
vt 0.676353 0.042626
vt 0.624075 0.008857
vt 0.566383 0.773285
vt 0.603791 0.005080
vt 0.652022 0.041341
vt 0.643663 0.805118
vt 0.627661 0.813828
vt 0.640888 0.014178
vt 0.601175 0.813865
vt 0.419526 0.000000
vt 0.435667 0.813865
vt 0.396625 0.805400
vt 0.581524 0.007454
vt 0.543956 0.040441
vt 0.565494 0.013551
vt 0.534581 0.785445
vt 0.479277 0.037674
vt 0.582338 0.803518
vt 0.509806 0.788165
vt 0.479935 0.769890
vt 0.451884 0.008486
vt 0.742849 0.763031
vt 0.376091 0.778640
vt 0.390350 0.007892
vt 0.374364 0.031905
vt 0.000854 0.204993
vt 0.000000 0.135820
vt 0.000289 0.070571
vt 0.120487 0.815790
vt 0.102933 0.801628
vt 0.096985 0.042828
vt 0.001768 0.278964
vt 0.002711 0.355335
vt 0.003654 0.431705
vt 0.004568 0.505676
vt 0.006187 0.636826
vt 0.005422 0.574850
vt 0.006834 0.689205
vt 0.007333 0.729590
vt 0.007767 0.764776
vt 0.022788 0.047815
vt 0.075721 0.763965
vt 0.015673 0.776258
vt 0.041843 0.781492
vt 0.356953 0.803569
vt 0.340531 0.811107
vt 0.352462 0.004319
vt 0.108058 0.015633
vt 0.132679 0.008051
vt 0.058055 0.044996
vt 0.147758 0.815461
vt 0.328713 0.000000
vt 0.155697 0.006717
vt 0.184399 0.774587
vt 0.182621 0.013779
vt 0.214505 0.786134
vt 0.270450 0.037408
vt 0.167311 0.805921
vt 0.205048 0.041619
vt 0.238942 0.789491
vt 0.270922 0.771243
vt 0.298573 0.008492
vt 0.315513 0.815790
vt 0.373256 0.782170
vt 0.374364 0.030825
vt 0.749378 0.032084
vt 0.749454 0.000000
vt 0.874498 0.003498
vt 0.874437 0.029089
vt 0.374424 0.931703
vt 0.374364 0.889729
vt 0.499420 0.889788
vt 0.499473 0.926349
vt 0.130127 0.957553
vt 0.104905 0.957547
vt 0.104905 0.815790
vt 0.130127 0.815796
vt 0.043424 0.958102
vt 0.021878 0.816043
vt 0.045622 0.816363
vt 0.874450 0.772062
vt 0.749385 0.786482
vt 0.749399 0.769341
vt 0.704089 0.813880
vt 0.710447 0.955638
vt 0.675177 0.955633
vt 0.874435 0.814313
vt 0.749378 0.813702
vt 0.725049 0.813883
vt 0.749378 0.955642
vt 0.014239 0.957713
vt 0.000000 0.815790
vt 0.624579 0.813928
vt 0.624563 0.832977
vt 0.499500 0.841782
vt 0.499524 0.813865
vt 0.874530 0.871065
vt 0.749474 0.870820
vt 0.374423 0.854696
vt 0.499479 0.854748
vt 0.374433 0.824870
vt 0.499488 0.824627
vt 0.874495 0.901444
vt 0.749439 0.903620
vt 0.624548 0.855964
vt 0.499488 0.867875
vt 0.874502 0.929590
vt 0.749448 0.931498
vt 0.624542 0.881209
vt 0.499488 0.898387
vt 0.374416 0.813865
vt 0.874530 0.967152
vt 0.749475 0.967049
vt 0.874515 0.713122
vt 0.874514 0.678296
vt 0.999570 0.678306
vt 0.999570 0.713133
vt 0.874513 0.638324
vt 0.999569 0.638335
vt 0.874512 0.586480
vt 0.999567 0.586491
vt 0.874510 0.525138
vt 0.999566 0.525149
vt 0.874509 0.456672
vt 0.999564 0.456683
vt 0.874507 0.383457
vt 0.999562 0.383468
vt 0.667041 0.955663
vt 0.637035 0.955624
vt 0.635815 0.813865
vt 0.667041 0.813907
vt 0.874505 0.307868
vt 0.999561 0.307878
vt 0.874503 0.232278
vt 0.999559 0.232289
vt 0.874501 0.159063
vt 0.999557 0.159074
vt 0.624579 0.923845
vt 0.499524 0.923783
vt 0.624546 0.997158
vt 0.499488 0.997923
vt 0.874500 0.090597
vt 0.999555 0.090608
vt 0.374376 1.000000
vt 0.374410 0.980649
vt 0.499467 0.978734
vt 0.499434 0.999051
vt 0.874498 0.027035
vt 0.999555 0.025867
vt 0.374430 0.951031
vt 0.499488 0.948286
vt 0.075767 0.815790
vt 0.104905 0.816071
vt 0.104905 0.957833
vt 0.075970 0.957553
vt 0.874509 0.006912
vt 0.999570 0.000000
vt 0.749442 0.751165
vt 0.874498 0.752927
vt 0.075767 0.958565
vt 0.075767 0.816796
vt 0.682783 0.813878
vt 0.749378 0.813885
vt 0.749506 0.769340
vt 0.624545 0.899389
vn 0.000000 -1.000000 -0.000000
vn 0.000000 -1.000000 -0.000200
vn 0.000000 -1.000000 0.000200
vn 0.000000 1.000000 -0.000000
vn 0.000000 1.000000 -0.000200
vn 0.000000 1.000000 0.000100
vn 0.661500 -0.005900 0.750000
vn 0.629500 -0.001700 -0.777000
vn -0.428000 0.000000 -0.903800
vn -0.985700 -0.005400 0.168200
vn 0.930500 0.009200 0.366100
vn -0.998200 0.001200 -0.060500
vn 0.988200 -0.008800 0.153200
vn -0.999200 0.000000 -0.039200
vn -0.676300 0.016600 0.736400
vn -0.966600 0.000900 -0.256400
vn 0.745400 -0.002200 -0.666600
vn 0.913800 0.000000 0.406200
vn 0.983600 0.000700 -0.180400
vn 0.890800 0.001400 0.454300
vn -0.999100 0.007000 -0.041200
vn 0.993200 -0.000800 -0.116800
vn -0.972000 0.008000 0.235000
vn 0.609000 -0.000200 -0.793200
vn 0.944600 -0.000600 -0.328200
vn 0.004100 -0.000000 -1.000000
vn 0.527100 0.001100 0.849800
vn -0.667000 -0.000000 0.745100
vn -0.999200 -0.004800 -0.038700
vn 0.913100 0.000400 0.407800
vn -0.009700 0.002600 -0.999900
vn 1.000000 -0.003000 -0.003800
vn -0.740500 0.000600 -0.672000
vn -0.727600 0.007400 -0.686000
vn 0.010800 0.006900 0.999900
vn -0.974400 -0.005700 -0.224700
vn 0.808900 0.010400 -0.587800
vn -0.999100 0.005700 -0.042900
vn 0.983400 -0.015200 0.180600
vn -0.970800 -0.020400 0.239200
vn -0.596500 -0.006600 0.802600
vn -0.987900 -0.005700 -0.154900
vn -0.994900 -0.006300 0.101000
vn -0.945700 -0.005200 0.325100
vn -0.666700 0.000100 0.745300
vn 0.898200 -0.013700 -0.439500
vn -0.934900 -0.015900 -0.354500
usemtl Material.001
s off
f 25/1/1 27/2/1 26/3/1
f 27/2/1 25/1/1 24/4/1
f 27/2/1 24/4/1 23/5/1
f 27/2/1 23/5/1 22/6/1
f 27/2/1 22/6/1 21/7/1
f 19/8/2 27/2/2 20/9/2
f 18/10/3 27/10/3 19/10/3
f 17/10/2 27/10/2 18/10/2
f 16/10/1 27/10/1 17/10/1
f 28/11/1 27/12/1 13/13/1
f 15/14/1 14/15/1 27/12/1
f 29/16/1 28/11/1 13/13/1
f 14/15/1 13/13/1 27/12/1
f 30/17/1 29/16/1 13/13/1
f 31/18/1 30/17/1 13/13/1
f 34/19/1 8/20/1 35/21/1
f 32/22/1 13/13/1 12/23/1
f 31/18/1 13/13/1 32/22/1
f 32/22/1 11/24/1 33/25/1
f 12/23/1 11/24/1 32/22/1
f 11/24/1 34/19/1 33/25/1
f 10/26/1 34/19/1 11/24/1
f 41/27/1 4/28/1 3/29/1
f 35/21/1 8/20/1 36/30/1
f 8/20/1 38/31/1 37/32/1
f 7/33/1 39/34/1 8/20/1
f 9/35/1 8/20/1 34/19/1
f 8/20/1 37/32/1 36/30/1
f 8/20/1 39/34/1 38/31/1
f 10/26/1 9/35/1 34/19/1
f 6/36/1 39/34/1 7/33/1
f 5/37/1 39/34/1 6/36/1
f 39/34/1 5/37/1 40/38/1
f 4/28/1 40/38/1 5/37/1
f 41/27/1 40/38/1 4/28/1
f 15/14/1 27/12/1 16/39/1
f 41/27/1 2/40/1 42/41/1
f 3/29/1 2/40/1 41/27/1
f 2/40/1 1/42/1 42/41/1
f 27/2/1 21/7/1 20/9/1
f 67/43/4 68/44/4 69/45/4
f 53/46/4 54/47/4 72/48/4
f 69/45/4 66/49/4 67/43/4
f 69/45/4 65/50/4 66/49/4
f 69/45/4 64/51/4 65/50/4
f 69/45/4 63/52/4 64/51/4
f 61/53/4 62/54/4 69/45/4
f 60/55/5 61/53/5 69/45/5
f 59/56/6 60/55/6 69/45/6
f 58/57/6 59/56/6 69/45/6
f 70/58/4 55/59/4 69/45/4
f 57/60/4 69/45/4 56/61/4
f 56/61/4 69/45/4 55/59/4
f 44/62/4 45/63/4 81/64/4
f 72/48/4 54/47/4 55/59/4
f 72/48/4 73/65/4 53/46/4
f 53/46/4 73/65/4 74/66/4
f 71/67/4 72/48/4 55/59/4
f 52/68/4 53/46/4 74/66/4
f 80/69/4 81/64/4 45/63/4
f 74/66/4 75/70/4 50/71/4
f 75/70/4 76/72/4 50/71/4
f 49/73/4 50/71/4 78/74/4
f 51/75/4 74/66/4 50/71/4
f 50/71/4 76/72/4 77/76/4
f 50/71/4 77/76/4 78/74/4
f 52/68/4 74/66/4 51/75/4
f 48/77/4 49/73/4 78/74/4
f 47/78/4 48/77/4 78/74/4
f 78/74/4 79/79/4 47/78/4
f 71/67/4 55/59/4 70/58/4
f 46/80/4 47/78/4 79/79/4
f 80/69/4 45/63/4 79/79/4
f 45/63/4 46/80/4 79/79/4
f 57/60/4 58/57/4 69/45/4
f 44/62/4 81/64/4 43/81/4
f 81/64/4 82/82/4 43/81/4
f 2/83/7 3/84/7 44/85/7 43/86/7
f 69/45/4 62/54/4 63/52/4
f 12/87/8 13/88/8 55/89/8 54/90/8
f 32/91/9 33/92/9 73/93/9 72/94/9
f 41/95/10 81/96/10 80/97/10
f 3/98/11 45/99/11 44/100/11
f 30/101/12 71/102/12 70/103/12
f 4/104/13 46/105/13 45/99/13
f 31/106/14 72/107/14 71/102/14
f 42/108/15 82/109/15 81/96/15
f 33/110/16 34/111/16 74/112/16 73/113/16
f 4/104/17 5/114/17 47/115/17 46/105/17
f 13/88/18 14/116/18 56/117/18 55/89/18
f 14/116/19 15/118/19 57/119/19 56/117/19
f 5/114/20 6/120/20 48/121/20 47/115/20
f 35/122/21 75/123/21 74/112/21
f 6/120/22 7/124/22 49/125/22 48/121/22
f 36/126/23 76/127/23 75/123/23
f 15/118/24 16/128/24 58/113/24 57/119/24
f 7/124/25 8/129/25 50/130/25 49/125/25
f 16/131/26 17/132/26 59/133/26 58/134/26
f 17/132/26 18/135/26 60/136/26 59/133/26
f 18/135/26 19/137/26 61/138/26 60/136/26
f 19/137/26 20/139/26 62/140/26 61/138/26
f 20/139/26 21/141/26 63/142/26 62/140/26
f 21/141/26 22/143/26 64/144/26 63/142/26
f 8/145/27 9/146/27 51/147/27 50/148/27
f 22/143/26 23/149/26 65/150/26 64/144/26
f 23/149/26 24/151/26 66/152/26 65/150/26
f 24/151/26 25/153/26 67/154/26 66/152/26
f 38/155/28 77/156/28 76/127/28
f 38/155/29 39/157/29 78/158/29 77/156/29
f 25/153/26 26/159/26 68/160/26 67/154/26
f 9/161/30 10/162/30 52/163/30 51/164/30
f 26/159/31 27/165/31 69/166/31 68/160/31
f 10/162/32 11/167/32 53/168/32 52/163/32
f 39/169/33 40/170/33 79/171/33 78/172/33
f 27/165/34 28/173/34 70/174/34 69/166/34
f 1/175/35 2/83/35 43/86/35 82/176/35
f 40/177/36 41/95/36 80/97/36 79/178/36
f 12/87/37 54/90/37 53/168/37
f 29/179/38 30/101/38 70/103/38
f 3/98/39 4/104/39 45/99/39
f 41/95/40 42/108/40 81/96/40
f 30/101/14 31/106/14 71/102/14
f 31/106/14 32/180/14 72/107/14
f 42/181/41 1/175/41 82/176/41
f 34/111/42 35/122/42 74/112/42
f 35/122/43 36/126/43 75/123/43
f 36/126/44 37/182/44 76/127/44
f 37/182/45 38/155/45 76/127/45
f 11/167/46 12/87/46 53/168/46
f 28/148/47 29/179/47 70/103/47