# Exported from Wings 3D 1.5.3
mtllib Settlement.mtl
o Settlement
#16 vertices, 14 faces
v -0.18750000 -0.20497312 0.26562500
v -0.18750000 -0.20497312 -0.26562500
v 0.18750000 -0.20497312 0.26562500
v 0.18750000 -0.20497312 -0.26562500
v -0.18750000 0.10752688 0.26562500
v -0.18750000 0.10752688 -0.26562500
v 0.18750000 0.10752688 0.26562500
v 0.18750000 0.10752688 -0.26562500
v -3.1250000e-2 0.26377688 0.26562500
v -3.1250000e-2 0.26377688 -0.26562500
v 3.1250000e-2 0.26377688 0.26562500
v 3.1250000e-2 0.26377688 -0.26562500
v -3.1250000e-2 -0.20497312 -0.26562500
v 3.1250000e-2 -0.20497312 -0.26562500
v -3.1250000e-2 -0.20497312 0.26562500
v 3.1250000e-2 -0.20497312 0.26562500
vt 0.0000000e+0 0.23179196
vt 0.0000000e+0 0.23179196
vt 0.0000000e+0 0.62583828
vt 5.5511151e-17 0.85763024
vt 1.6653345e-16 0.0000000e+0
vt 2.2204460e-16 0.62583828
vt 0.11589598 0.23179196
vt 0.11589598 0.62583828
vt 0.16225437 0.23179196
vt 0.16225437 0.62583828
vt 0.27815035 0.23179196
vt 0.27815035 0.23179196
vt 0.27815035 0.62583828
vt 0.27815035 0.62583828
vt 0.32450874 0.23179196
vt 0.32450874 0.62583828
vt 0.39404633 0.23179196
vt 0.39404633 0.62583828
vt 0.39404633 0.85763024
vt 0.39404633 2.4980018e-16
vt 0.39404633 1.6653345e-16
vt 0.39404633 0.39404633
vt 0.55794799 0.0000000e+0
vt 0.55794799 0.39404633
vt 0.55794799 0.0000000e+0
vt 0.72184965 0.39404633
vt 0.72184965 8.3266727e-17
vt 0.72184965 1.6653345e-16
vt 0.72184965 0.57947989
vt 0.72184965 0.34768793
vt 0.72184965 0.23179196
vt 0.83774563 8.3266727e-17
vt 0.83774563 0.69537587
vt 0.83774563 0.34768793
vt 0.83774563 0.34768793
vt 0.88410402 0.0000000e+0
vt 0.88410402 0.69537587
vt 0.88410402 0.34768793
vt 0.88410402 0.34768793
vt 1.00000000 0.0000000e+0
vt 1.00000000 0.34768793
vt 1.00000000 0.57947989
vt 1.00000000 0.23179196
vn 0.0000000e+0 -1.00000000 1.0449158e-16
vn -1.00000000 0.0000000e+0 0.0000000e+0
vn 0.0000000e+0 0.0000000e+0 1.00000000
vn 0.0000000e+0 -1.00000000 1.0449158e-16
vn -1.00000000 0.0000000e+0 0.0000000e+0
vn 0.0000000e+0 0.0000000e+0 -1.00000000
vn 1.00000000 0.0000000e+0 0.0000000e+0
vn 0.0000000e+0 0.0000000e+0 1.00000000
vn 0.0000000e+0 -1.00000000 1.0449158e-16
vn 1.00000000 0.0000000e+0 0.0000000e+0
vn 0.0000000e+0 0.0000000e+0 -1.00000000
vn 0.0000000e+0 -1.00000000 1.0449158e-16
vn -1.00000000 0.0000000e+0 0.0000000e+0
vn -0.70710678 0.70710678 -1.0344139e-16
vn 0.0000000e+0 0.0000000e+0 1.00000000
vn -1.00000000 0.0000000e+0 0.0000000e+0
vn -0.70710678 0.70710678 -1.0344139e-16
vn 0.0000000e+0 0.0000000e+0 -1.00000000
vn 1.00000000 0.0000000e+0 0.0000000e+0
vn 0.70710678 0.70710678 -1.0344139e-16
vn 0.0000000e+0 0.0000000e+0 1.00000000
vn 1.00000000 0.0000000e+0 0.0000000e+0
vn 0.70710678 0.70710678 -1.0344139e-16
vn 0.0000000e+0 0.0000000e+0 -1.00000000
vn 0.0000000e+0 1.00000000 -2.0898316e-16
vn -0.70710678 0.70710678 -1.0344139e-16
vn 0.0000000e+0 0.0000000e+0 1.00000000
vn 0.0000000e+0 0.0000000e+0 1.00000000
vn 0.0000000e+0 1.00000000 -2.0898316e-16
vn -0.70710678 0.70710678 -1.0344139e-16
vn 0.0000000e+0 0.0000000e+0 -1.00000000
vn 0.0000000e+0 0.0000000e+0 -1.00000000
vn 0.0000000e+0 1.00000000 -2.0898316e-16
vn 0.70710678 0.70710678 -1.0344139e-16
vn 0.0000000e+0 0.0000000e+0 1.00000000
vn 0.0000000e+0 0.0000000e+0 1.00000000
vn 0.0000000e+0 1.00000000 -2.0898316e-16
vn 0.70710678 0.70710678 -1.0344139e-16
vn 0.0000000e+0 0.0000000e+0 -1.00000000
vn 0.0000000e+0 0.0000000e+0 -1.00000000
vn 0.0000000e+0 -1.00000000 1.0449158e-16
vn 0.0000000e+0 0.0000000e+0 -1.00000000
vn 0.0000000e+0 0.0000000e+0 -1.00000000
vn 0.0000000e+0 -1.00000000 1.0449158e-16
vn 0.0000000e+0 0.0000000e+0 -1.00000000
vn 0.0000000e+0 0.0000000e+0 -1.00000000
vn 0.0000000e+0 -1.00000000 1.0449158e-16
vn 0.0000000e+0 -1.00000000 1.0449158e-16
vn 0.0000000e+0 -1.00000000 1.0449158e-16
vn 0.0000000e+0 0.0000000e+0 1.00000000
vn 0.0000000e+0 0.0000000e+0 1.00000000
vn 0.0000000e+0 -1.00000000 1.0449158e-16
vn 0.0000000e+0 0.0000000e+0 1.00000000
vn 0.0000000e+0 0.0000000e+0 1.00000000
vn 0.0000000e+0 -1.00000000 1.0449158e-16
vn 0.0000000e+0 -1.00000000 1.0449158e-16
g Settlement_Settlement_auv
usemtl Settlement_auv
s 1
f 4/28/11 14/32/46 12/35/40 8/31/24
f 6/43/18 10/39/32 13/36/43 2/40/6
f 7/42/21 11/37/36 16/38/54 3/41/8
f 9/33/28 15/34/51 16/38/53 11/37/35
f 12/35/39 14/32/45 13/36/42 10/39/31
f 15/34/50 9/33/27 5/29/15 1/30/3
s 2
f 4/20/10 8/17/22 7/1/19 3/5/7
f 9/23/26 10/24/30 6/22/17 5/21/14
s 3
f 1/18/2 5/19/13 6/4/16 2/3/5
f 7/27/20 8/26/23 12/24/38 11/25/34
s 4
f 2/13/4 13/10/41 15/9/49 1/11/1
f 3/2/9 16/7/56 14/8/48 4/6/12
f 11/15/33 12/16/37 10/14/29 9/12/25
f 14/8/47 16/7/55 15/9/52 13/10/44
