# Blender v2.75 (sub 0) OBJ File: 'Mina.blend'
# www.blender.org
mtllib Mina.mtl
o Cylinder
v 0.000000 -0.325000 0.000000
v 0.000000 0.325000 0.000000
v 0.000000 -0.325000 -0.200000
v 0.000000 0.325000 -0.200000
v 0.068404 -0.325000 -0.187939
v 0.068404 0.325000 -0.187939
v 0.128558 -0.325000 -0.153209
v 0.128558 0.325000 -0.153209
v 0.173205 -0.325000 -0.100000
v 0.173205 0.325000 -0.100000
v 0.196962 -0.325000 -0.034730
v 0.196962 0.325000 -0.034730
v 0.196962 -0.325000 0.034730
v 0.196962 0.325000 0.034730
v 0.173205 -0.325000 0.100000
v 0.173205 0.325000 0.100000
v 0.128558 -0.325000 0.153209
v 0.128558 0.325000 0.153209
v 0.068404 -0.325000 0.187939
v 0.068404 0.325000 0.187939
v 0.000000 -0.325000 0.200000
v 0.000000 0.325000 0.200000
v -0.068404 -0.325000 0.187939
v -0.068404 0.325000 0.187939
v -0.128557 -0.325000 0.153209
v -0.128557 0.325000 0.153209
v -0.173205 -0.325000 0.100000
v -0.173205 0.325000 0.100000
v -0.196962 -0.325000 0.034730
v -0.196962 0.325000 0.034730
v -0.196962 -0.325000 -0.034730
v -0.196962 0.325000 -0.034730
v -0.173205 -0.325000 -0.100000
v -0.173205 0.325000 -0.100000
v -0.128558 -0.325000 -0.153209
v -0.128558 0.325000 -0.153209
v -0.068404 -0.325000 -0.187938
v -0.068404 0.325000 -0.187938
vt 0.723515 0.809524
vt 0.547540 0.842600
vt 0.547540 0.776448
vt 0.175976 0.809524
vt 0.330726 0.714286
vt 0.351952 0.776448
vt 0.941684 0.619047
vt 0.941684 0.000000
vt 1.000000 0.000000
vt 1.000000 0.619047
vt 0.568765 0.714286
vt 0.290836 0.663611
vt 0.547540 0.619047
vt 0.547540 0.000000
vt 0.595079 0.000000
vt 0.595079 0.619047
vt 0.608655 0.663610
vt 0.237092 0.630535
vt 0.653395 0.000000
vt 0.653395 0.619047
vt 0.662400 0.630535
vt 0.175976 0.619048
vt 0.715454 0.000000
vt 0.715454 0.619047
vt 0.723515 0.619047
vt 0.114860 0.630535
vt 0.773770 0.000000
vt 0.773770 0.619047
vt 0.784631 0.630535
vt 0.061116 0.663611
vt 0.821309 0.000000
vt 0.821309 0.619047
vt 0.838375 0.663610
vt 0.021225 0.714286
vt 0.500000 0.619047
vt 0.500000 0.000000
vt 0.878266 0.714286
vt 0.000000 0.776448
vt 0.441684 0.619047
vt 0.441684 0.000000
vt 0.899491 0.776448
vt 0.000000 0.842600
vt 0.379625 0.619047
vt 0.379625 0.000000
vt 0.899491 0.842599
vt 0.021225 0.904762
vt 0.321309 0.619047
vt 0.321309 0.000000
vt 0.878266 0.904762
vt 0.061116 0.955437
vt 0.273770 0.619047
vt 0.273770 0.000000
vt 0.838375 0.955437
vt 0.114860 0.988513
vt 0.000000 0.619048
vt 0.000000 0.000000
vt 0.047540 0.000000
vt 0.047540 0.619048
vt 0.784631 0.988513
vt 0.175976 1.000000
vt 0.105856 0.000000
vt 0.105856 0.619048
vt 0.723515 1.000000
vt 0.237091 0.988513
vt 0.167914 0.000000
vt 0.167914 0.619048
vt 0.662400 0.988513
vt 0.290836 0.955437
vt 0.226230 0.000000
vt 0.226230 0.619048
vt 0.608655 0.955437
vt 0.330726 0.904762
vt 0.568765 0.904762
vt 0.351952 0.842600
vt 0.879625 0.000000
vt 0.879625 0.619047
vn 0.000000 -1.000000 0.000000
vn 0.000000 1.000000 0.000000
vn 0.173600 0.000000 -0.984800
vn 0.500000 0.000000 -0.866000
vn 0.766000 0.000000 -0.642800
vn 0.939700 0.000000 -0.342000
vn 1.000000 0.000000 0.000000
vn 0.939700 0.000000 0.342000
vn 0.766000 0.000000 0.642800
vn 0.500000 0.000000 0.866000
vn 0.173600 0.000000 0.984800
vn -0.173600 0.000000 0.984800
vn -0.500000 0.000000 0.866000
vn -0.766000 0.000000 0.642800
vn -0.939700 0.000000 0.342000
vn -1.000000 0.000000 0.000000
vn -0.939700 0.000000 -0.342000
vn -0.766000 0.000000 -0.642800
vn -0.500000 0.000000 -0.866000
vn -0.173600 0.000000 -0.984800
usemtl Material.001
s off
f 1/1/1 3/2/1 5/3/1
f 2/4/2 6/5/2 4/6/2
f 3/7/3 4/8/3 6/9/3 5/10/3
f 1/1/1 5/3/1 7/11/1
f 2/4/2 8/12/2 6/5/2
f 5/13/4 6/14/4 8/15/4 7/16/4
f 1/1/1 7/11/1 9/17/1
f 2/4/2 10/18/2 8/12/2
f 7/16/5 8/15/5 10/19/5 9/20/5
f 1/1/1 9/17/1 11/21/1
f 2/4/2 12/22/2 10/18/2
f 9/20/6 10/19/6 12/23/6 11/24/6
f 1/1/1 11/21/1 13/25/1
f 2/4/2 14/26/2 12/22/2
f 11/24/7 12/23/7 14/27/7 13/28/7
f 1/1/1 13/25/1 15/29/1
f 2/4/2 16/30/2 14/26/2
f 13/28/8 14/27/8 16/31/8 15/32/8
f 1/1/1 15/29/1 17/33/1
f 2/4/2 18/34/2 16/30/2
f 15/14/9 16/13/9 18/35/9 17/36/9
f 1/1/1 17/33/1 19/37/1
f 2/4/2 20/38/2 18/34/2
f 17/36/10 18/35/10 20/39/10 19/40/10
f 1/1/1 19/37/1 21/41/1
f 2/4/2 22/42/2 20/38/2
f 19/40/11 20/39/11 22/43/11 21/44/11
f 1/1/1 21/41/1 23/45/1
f 2/4/2 24/46/2 22/42/2
f 21/44/12 22/43/12 24/47/12 23/48/12
f 1/1/1 23/45/1 25/49/1
f 2/4/2 26/50/2 24/46/2
f 23/48/13 24/47/13 26/51/13 25/52/13
f 1/1/1 25/49/1 27/53/1
f 2/4/2 28/54/2 26/50/2
f 25/55/14 26/56/14 28/57/14 27/58/14
f 1/1/1 27/53/1 29/59/1
f 2/4/2 30/60/2 28/54/2
f 27/58/15 28/57/15 30/61/15 29/62/15
f 1/1/1 29/59/1 31/63/1
f 2/4/2 32/64/2 30/60/2
f 29/62/16 30/61/16 32/65/16 31/66/16
f 1/1/1 31/63/1 33/67/1
f 2/4/2 34/68/2 32/64/2
f 31/66/17 32/65/17 34/69/17 33/70/17
f 1/1/1 33/67/1 35/71/1
f 2/4/2 36/72/2 34/68/2
f 33/70/18 34/69/18 36/52/18 35/51/18
f 1/1/1 35/71/1 37/73/1
f 2/4/2 38/74/2 36/72/2
f 35/32/19 36/31/19 38/75/19 37/76/19
f 1/1/1 37/73/1 3/2/1
f 2/4/2 4/6/2 38/74/2
f 37/76/20 38/75/20 4/8/20 3/7/20