# Alias OBJ Model File
# Exported from SketchUp, (c) 2000-2012 Trimble Navigation Limited
# File units = inches

mtllib _atctFINAL.mtl

g Mesh1 Model

usemtl Wood_Veneer_01
v 1.21707 0 -0.326112
vt -4.86827 1.30445
vn 0 -1 -0
v 1.26 0 8.88178e-16
vt -5.04 -3.55271e-15
v 1.09119 0 -0.63
vt -4.36477 2.52
f 1/1/1 2/2/1 3/3/1

v 1.32207 0 -0.241187
vt -5.28827 0.964748
f 1/1/1 4/4/1 2/2/1

v 1.41832 0 -0.326112
vt -5.67327 1.30445
f 5/5/1 4/4/1 1/1/1

v 1.41832 0 -0.241187
vt -5.67327 0.964748
f 6/6/1 4/4/1 5/5/1

vt 5.28827 -0.296964
vn 0 -0.307815 0.951446
vt 5.67327 -0.296964
v 1.32207 0.2625 -0.156262
vt 5.28827 0.806619
f 4/7/2 6/8/2 7/9/2

v 1.41832 0.2625 -0.156262
vt 5.67327 0.806619
f 8/10/2 7/9/2 6/8/2

vt -5.28827 0.625048
vt -5.67327 0.625048
v 1.32207 0.2625 0.156262
vt -5.28827 -0.625048
f 7/11/1 8/12/1 9/13/1

v 1.41832 0.2625 0.156262
vt -5.67327 -0.625048
f 10/14/1 9/13/1 8/12/1

vt -5.28827 0.806619
vn 0 -0.307815 -0.951446
vt -5.67327 0.806619
v 1.32207 0 0.241187
vt -5.28827 -0.296964
f 9/15/3 10/16/3 11/17/3

v 1.41832 0 0.241187
vt -5.67327 -0.296964
f 12/18/3 11/17/3 10/16/3

vt -5.67327 -0.964748
v 1.41832 0 0.326112
vt -5.67327 -1.30445
vt -5.28827 -0.964748
f 12/19/1 13/20/1 11/21/1

vt -0.964748 0
vn 1 0 -0
vt -0.625048 1.05
vt -1.30445 0
f 12/22/4 10/23/4 13/24/4

v 1.41832 0.35 0.307995
vt -1.23198 1.4
f 14/25/4 13/24/4 10/23/4

vt 5.67327 -0.0674329
vn 8.18375e-18 0.0516946 0.998663
vt 5.67327 1.33444
v 1.21707 0 0.326112
vt 4.86827 -0.0674329
f 13/26/5 14/27/5 15/28/5

v 1.14945 0.35 0.307995
vt 4.59781 1.33444
vn -4.58518e-18 0.0516946 0.998663
f 16/29/6 15/28/6 14/27/6

vt 0.657852 -0.971904
vn 0.906235 0.194502 0.375375
vt 0.621305 0.455354
v 1.09119 0 0.63
vt -0.657852 -0.971904
f 15/30/7 16/31/7 17/32/7

v 0.969948 0.7 0.56
vt -0.584757 1.88261
f 17/32/7 16/31/7 18/33/7

v 1.08184 0.7 0.289877
vt 0.584757 1.88261
f 19/34/7 18/33/7 16/31/7

v 0.969948 0.7 -0.56
vt 3.87979 2.24
vn -3.11162e-32 1 7.04209e-32
vt 3.87979 -2.24
vt 4.32735 -1.15951
f 20/35/8 18/36/8 19/37/8

v 0.79196 0.7 -0.79196
vt 3.16784 3.16784
f 21/38/8 18/36/8 20/35/8

v 0.79196 0.7 0.79196
vt 3.16784 -3.16784
f 21/38/8 22/39/8 18/36/8

v 0.56 0.7 -0.969948
vt 2.24 3.87979
f 23/40/8 22/39/8 21/38/8

v 0.56 0.7 0.969948
vt 2.24 -3.87979
f 23/40/8 24/41/8 22/39/8

v 0.303109 0.7 -0.175
vt 1.21244 0.7
f 23/40/8 25/42/8 24/41/8

v 0.289877 0.7 -1.08184
vt 1.15951 4.32735
f 26/43/8 25/42/8 23/40/8

v 0 0.7 -1.12
vt 8.71254e-32 4.48
f 27/44/8 25/42/8 26/43/8

v 0 0.7 -0.35
vt 8.71254e-32 1.4
f 27/44/8 28/45/8 25/42/8

v -0.289877 0.7 -1.08184
vt -1.15951 4.32735
f 29/46/8 28/45/8 27/44/8

v -0.303109 0.7 -0.175
vt -1.21244 0.7
f 29/46/8 30/47/8 28/45/8

v -0.56 0.7 -0.969948
vt -2.24 3.87979
f 31/48/8 30/47/8 29/46/8

v -0.303109 0.7 0.175
vt -1.21244 -0.7
f 30/47/8 31/48/8 32/49/8

v -0.289877 0.7 1.08184
vt -1.15951 -4.32735
f 31/48/8 33/50/8 32/49/8

v -0.56 0.7 0.969948
vt -2.24 -3.87979
f 31/48/8 34/51/8 33/50/8

v -0.79196 0.7 -0.79196
vt -3.16784 3.16784
f 35/52/8 34/51/8 31/48/8

v -0.79196 0.7 0.79196
vt -3.16784 -3.16784
f 35/52/8 36/53/8 34/51/8

v -0.969948 0.7 -0.56
vt -3.87979 2.24
f 37/54/8 36/53/8 35/52/8

v -0.969948 0.7 0.56
vt -3.87979 -2.24
f 37/54/8 38/55/8 36/53/8

v -1.08184 0.7 -0.289877
vt -4.32735 1.15951
f 39/56/8 38/55/8 37/54/8

v -1.08184 0.7 0.289877
vt -4.32735 -1.15951
f 39/56/8 40/57/8 38/55/8

v -1.12 0.7 -0
vt -4.48 1.97179e-31
f 40/57/8 39/56/8 41/58/8

v -1.26 0 -0
vn -0.97251 0.194502 -0.128033
v -1.21707 0 -0.326112
f 42/30/9 41/34/9 39/33/9 43/32/9 

v -1.21707 0 0.326112
vn -0.97251 0.194502 0.128033
f 44/30/10 40/34/10 41/33/10 42/32/10 

v -1.09119 0 0.63
vn -0.906235 0.194502 0.375375
f 45/30/11 38/34/11 40/33/11 44/32/11 

v -0.890955 0 0.890955
vn -0.778202 0.194502 0.597135
f 46/30/12 36/34/12 38/33/12 45/32/12 

v -0.63 0 1.09119
vn -0.597135 0.194502 0.778202
f 47/30/13 34/34/13 36/33/13 46/32/13 

v -0.326112 0 1.21707
vn -0.375375 0.194502 0.906235
f 48/30/14 33/34/14 34/33/14 47/32/14 

v 0 0 1.26
vn -0.128033 0.194502 0.97251
v 0 0.7 1.12
f 49/30/15 50/34/15 33/33/15 48/32/15 

v 0.326112 0 1.21707
vn 0.128033 0.194502 0.97251
v 0.289877 0.7 1.08184
f 51/30/16 52/34/16 50/33/16 49/32/16 

v 0.63 0 1.09119
vn 0.375375 0.194502 0.906235
f 53/30/17 24/34/17 52/33/17 51/32/17 

v 0.890955 0 0.890955
vn 0.597135 0.194502 0.778202
f 54/30/18 22/34/18 24/33/18 53/32/18 

vn 0.778202 0.194502 0.597135
f 17/30/19 18/34/19 22/33/19 54/32/19 

vt -4.36477 -2.52
vt -3.56382 -3.56382
vt 5.04 0
f 17/59/1 54/60/1 42/61/1

vt -2.52 -4.36477
f 54/60/1 53/62/1 42/61/1

vt -1.30445 -4.86827
f 53/62/1 51/63/1 42/61/1

vt 0 -5.04
f 51/63/1 49/64/1 42/61/1

vt 1.30445 -4.86827
f 49/64/1 48/65/1 42/61/1

vt 2.52 -4.36477
f 48/65/1 47/66/1 42/61/1

vt 3.56382 -3.56382
f 47/66/1 46/67/1 42/61/1

vt 4.36477 -2.52
f 46/67/1 45/68/1 42/61/1

vt 4.86827 -1.30445
f 44/69/1 42/61/1 45/68/1

vt -4.86827 -1.30445
f 15/70/1 17/59/1 42/61/1

v 0 0 -0
vt 0 0
f 2/2/1 15/70/1 42/61/1 55/71/1 

f 15/70/1 2/2/1 11/21/1

f 4/4/1 11/21/1 2/2/1

vt 0.964748 0
f 11/22/4 4/72/4 9/23/4

vt 0.625048 1.05
f 7/73/4 9/23/4 4/72/4

f 15/70/1 11/21/1 13/20/1

vt -5.1171 1.21151
vn 0.595252 -0.436518 -0.674631
vt -4.60366 1.21151
vt -4.6676 2.37857
f 13/74/20 11/75/20 10/76/20

vt 4.86827 1.30445
v 0 0 -0.165882
vt 0 0.663529
f 43/77/1 56/78/1 55/71/1 42/61/1 

v -1.09119 0 -0.63
vt 4.36477 2.52
f 43/77/1 57/79/1 2/2/1 56/78/1 

vn -0.906235 0.194502 -0.375375
f 43/30/21 39/34/21 37/33/21 57/32/21 

vn -0.778202 0.194502 -0.597135
v -0.890955 0 -0.890955
f 57/30/22 37/34/22 35/33/22 58/32/22 

vn -0.597135 0.194502 -0.778202
v -0.63 0 -1.09119
f 58/30/23 35/34/23 31/33/23 59/32/23 

vn -0.375375 0.194502 -0.906235
v -0.326112 0 -1.21707
f 59/30/24 31/34/24 29/33/24 60/32/24 

vn -0.128033 0.194502 -0.97251
v 0 0 -1.26
f 60/30/25 29/34/25 27/33/25 61/32/25 

vn 0.128033 0.194502 -0.97251
v 0.326112 0 -1.21707
f 61/30/26 27/34/26 26/33/26 62/32/26 

vn 0.375375 0.194502 -0.906235
v 0.63 0 -1.09119
f 62/30/27 26/34/27 23/33/27 63/32/27 

vn 0.597135 0.194502 -0.778202
v 0.890955 0 -0.890955
f 63/30/28 23/34/28 21/33/28 64/32/28 

vn 0.778202 0.194502 -0.597135
f 64/30/29 21/34/29 20/33/29 3/32/29 

vn 0.906235 0.194502 -0.375375
v 1.14945 0.35 -0.307995
vt -0.621305 0.455354
f 20/34/30 65/80/30 3/30/30

v 1.08184 0.7 -0.289877
f 66/33/30 65/80/30 20/34/30

v 1.12 0.7 8.88178e-16
vn 0.97251 0.194502 -0.128033
v 1.19 0.35 8.88178e-16
f 67/33/31 68/80/31 65/31/31 66/34/31 

vn 0.97251 0.194502 0.128033
f 19/33/32 16/80/32 68/31/32 67/34/32 

vt 4.59781 -1.23198
vn 0 1 -0
vt 5.67327 -1.23198
vt 4.76 -3.55271e-15
f 16/81/33 14/82/33 68/83/33

v 1.41832 0.35 -0.307995
vt 5.67327 1.23198
f 69/84/33 68/83/33 14/82/33

vt 4.59781 1.23198
f 65/85/33 68/83/33 69/84/33

vt -4.59781 1.33444
vn 4.58518e-18 0.0516946 -0.998663
vt -5.67327 1.33444
vt -4.86827 -0.0674329
f 65/86/34 69/87/34 1/88/34

vt -5.67327 -0.0674329
vn 8.18375e-18 0.0516946 -0.998663
f 5/89/35 1/88/35 69/87/35

vt 1.23198 1.4
vt 1.30445 0
f 69/90/4 8/73/4 5/91/4

f 8/73/4 69/90/4 10/23/4

f 14/25/4 10/23/4 69/90/4

f 6/72/4 5/91/4 8/73/4

f 1/32/30 3/30/30 65/80/30

vt 4.32735 1.15951
vt 4.48 -3.55271e-15
f 66/92/8 19/37/8 67/93/8

f 20/35/8 19/37/8 66/92/8

vt -3.56382 3.56382
f 64/94/1 3/3/1 2/2/1

vt -2.52 4.36477
f 63/95/1 64/94/1 2/2/1

vt -1.30445 4.86827
f 62/96/1 63/95/1 2/2/1

vt 0 5.04
f 61/97/1 62/96/1 2/2/1

vt 1.30445 4.86827
f 60/98/1 61/97/1 2/2/1

vt 2.52 4.36477
f 59/99/1 60/98/1 2/2/1

vt 3.56382 3.56382
f 58/100/1 59/99/1 2/2/1

f 57/79/1 58/100/1 2/2/1

f 2/2/1 55/71/1 56/78/1

v 0.303109 0.7 0.175
vt 1.21244 -0.7
vt 1.15951 -4.32735
f 70/101/8 52/102/8 24/41/8

v 0 0.7 0.35
vt 8.71254e-32 -1.4
f 71/103/8 52/102/8 70/101/8

vt 8.71254e-32 -4.48
f 71/103/8 50/104/8 52/102/8

f 71/103/8 33/50/8 50/104/8

f 32/49/8 33/50/8 71/103/8

v -0.303109 2.77966 0.175
vt -0.7 11.1186
vn -0.5 0 0.866025
vt -0.7 2.8
vt 0.7 2.8
v 0 2.77966 0.35
vt 0.7 11.1186
f 72/105/36 32/106/36 71/107/36 73/108/36 

v -0.303109 2.77966 -0.175
vn -1 0 -0
f 74/105/37 30/106/37 32/107/37 72/108/37 

vn -0.5 -1.83404e-16 -0.866025
v 0 2.77966 -0.35
f 30/107/38 74/108/38 75/105/38 28/106/38 

vn -1.3416e-31 -1 5.8695e-31
v -0.181173 2.77966 -0.676148
vt 0.724693 2.70459
vt 1.49168e-30 1.4
f 74/42/39 76/109/39 75/110/39

v -0.35 2.77966 -0.606218
vt 1.4 2.42487
f 74/42/39 77/111/39 76/109/39

v -0.35 2.77966 0.606218
vt 1.4 -2.42487
f 78/112/39 77/111/39 74/42/39

v -0.494975 2.77966 0.494975
vt 1.9799 -1.9799
f 79/113/39 77/111/39 78/112/39

v -0.494975 2.77966 -0.494975
vt 1.9799 1.9799
f 79/113/39 80/114/39 77/111/39

v -0.606218 2.77966 0.35
vt 2.42487 -1.4
f 81/115/39 80/114/39 79/113/39

v -0.606218 2.77966 -0.35
vt 2.42487 1.4
f 81/115/39 82/116/39 80/114/39

v -0.676148 2.77966 0.181173
vt 2.70459 -0.724693
f 83/117/39 82/116/39 81/115/39

v -0.676148 2.77966 -0.181173
vt 2.70459 0.724693
f 83/117/39 84/118/39 82/116/39

v -0.7 2.77966 -0
vt 2.8 -6.52609e-30
f 84/118/39 83/117/39 85/119/39

v -0.84 3.36 -0
vt -0.438568 13.8462
vn -0.964249 -0.232614 0.126946
vt -0.365473 11.4594
vt 0.365473 11.4594
v -0.811378 3.36 0.217408
vt 0.438568 13.8462
f 86/120/40 85/121/40 83/122/40 87/123/40 

v -0.811378 3.36 -0.217408
vn -0.964249 -0.232614 -0.126946
f 88/120/41 84/121/41 85/122/41 86/123/41 

v -0.727461 3.36 -0.42
vn -0.898537 -0.232614 -0.372186
f 89/120/42 82/121/42 84/122/42 88/123/42 

v -0.59397 3.36 -0.59397
vn -0.771591 -0.232614 -0.592063
f 90/120/43 80/121/43 82/122/43 89/123/43 

v -0.42 3.36 -0.727461
vn -0.592063 -0.232614 -0.771591
f 91/120/44 77/121/44 80/122/44 90/123/44 

v -0.217408 3.36 -0.811378
vn -0.372186 -0.232614 -0.898537
f 92/120/45 76/121/45 77/122/45 91/123/45 

v 0 3.36 -0.84
vn -0.126946 -0.232614 -0.964249
v 0 2.77966 -0.7
f 93/120/46 94/121/46 76/122/46 92/123/46 

v 0.217408 3.36 -0.811378
vn 0.126946 -0.232614 -0.964249
v 0.181173 2.77966 -0.676148
f 95/120/47 96/121/47 94/122/47 93/123/47 

v 0.42 3.36 -0.727461
vn 0.372186 -0.232614 -0.898537
v 0.35 2.77966 -0.606218
f 97/120/48 98/121/48 96/122/48 95/123/48 

v 0.59397 3.36 -0.59397
vn 0.592063 -0.232614 -0.771591
v 0.494975 2.77966 -0.494975
f 99/120/49 100/121/49 98/122/49 97/123/49 

vn 0.771591 -0.232614 -0.592063
v 0.727461 3.36 -0.42
v 0.606218 2.77966 -0.35
f 100/122/50 99/123/50 101/120/50 102/121/50 

vt 0.438568 7.19884
vn 0.56339 0.704063 -0.432305
v 0.494975 3.5 -0.494975
vt 0.365473 7.98742
v 0.606218 3.5 -0.35
vt -0.365473 7.98742
vt -0.438568 7.19884
f 99/124/51 103/125/51 104/126/51 101/127/51 

vn 0.432305 0.704063 -0.56339
v 0.35 3.5 -0.606218
f 97/124/52 105/125/52 103/126/52 99/127/52 

vn 0.271758 0.704063 -0.656082
v 0.181173 3.5 -0.676148
f 95/124/53 106/125/53 105/126/53 97/127/53 

vn 0.0926916 0.704063 -0.704063
v 0 3.5 -0.7
f 106/126/54 95/127/54 93/124/54 107/125/54 

vn -0.0926916 0.704063 -0.704063
v -0.181173 3.5 -0.676148
f 92/124/55 108/125/55 107/126/55 93/127/55 

vn -0.271758 0.704063 -0.656082
v -0.35 3.5 -0.606218
f 91/124/56 109/125/56 108/126/56 92/127/56 

vn -0.432305 0.704063 -0.56339
v -0.494975 3.5 -0.494975
f 90/124/57 110/125/57 109/126/57 91/127/57 

vn -0.56339 0.704063 -0.432305
v -0.606218 3.5 -0.35
f 89/124/58 111/125/58 110/126/58 90/127/58 

vn -0.656082 0.704063 -0.271758
v -0.676148 3.5 -0.181173
f 88/124/59 112/125/59 111/126/59 89/127/59 

vn -0.704063 0.704063 -0.0926916
v -0.7 3.5 -0
f 86/124/60 113/125/60 112/126/60 88/127/60 

vn -0.704063 0.704063 0.0926916
v -0.676148 3.5 0.181173
f 87/124/61 114/125/61 113/126/61 86/127/61 

v -0.727461 3.36 0.42
vn -0.656082 0.704063 0.271758
v -0.606218 3.5 0.35
f 115/124/62 116/125/62 114/126/62 87/127/62 

v -0.59397 3.36 0.59397
vn -0.56339 0.704063 0.432305
v -0.494975 3.5 0.494975
f 117/124/63 118/125/63 116/126/63 115/127/63 

v -0.42 3.36 0.727461
vn -0.432305 0.704063 0.56339
v -0.35 3.5 0.606218
f 119/124/64 120/125/64 118/126/64 117/127/64 

v -0.217408 3.36 0.811378
vn -0.271758 0.704063 0.656082
v -0.181173 3.5 0.676148
f 121/124/65 122/125/65 120/126/65 119/127/65 

v 0 3.36 0.84
vn -0.0926916 0.704063 0.704063
v 0 3.5 0.7
f 123/124/66 124/125/66 122/126/66 121/127/66 

v 0.217408 3.36 0.811378
vn 0.0926916 0.704063 0.704063
v 0.181173 3.5 0.676148
f 125/124/67 126/125/67 124/126/67 123/127/67 

v 0.42 3.36 0.727461
vn 0.271758 0.704063 0.656082
v 0.35 3.5 0.606218
f 127/124/68 128/125/68 126/126/68 125/127/68 

v 0.59397 3.36 0.59397
vn 0.432305 0.704063 0.56339
v 0.494975 3.5 0.494975
f 129/124/69 130/125/69 128/126/69 127/127/69 

v 0.727461 3.36 0.42
vn 0.56339 0.704063 0.432305
v 0.606218 3.5 0.35
f 131/124/70 132/125/70 130/126/70 129/127/70 

v 0.811378 3.36 0.217408
vn 0.656082 0.704063 0.271758
v 0.676148 3.5 0.181173
f 133/124/71 134/125/71 132/126/71 131/127/71 

v 0.84 3.36 -0
vn 0.704063 0.704063 0.0926916
v 0.7 3.5 -0
f 135/124/72 136/125/72 134/126/72 133/127/72 

v 0.811378 3.36 -0.217408
vn 0.704063 0.704063 -0.0926916
v 0.676148 3.5 -0.181173
f 137/124/73 138/125/73 136/126/73 135/127/73 

vn 0.656082 0.704063 -0.271758
f 101/124/74 104/125/74 138/126/74 137/127/74 

vt 2.8 0
f 138/118/33 104/116/33 136/128/33

f 103/114/33 136/128/33 104/116/33

f 105/111/33 136/128/33 103/114/33

f 106/109/33 136/128/33 105/111/33

vt 0 2.8
f 107/129/33 136/128/33 106/109/33

vt -0.724693 2.70459
f 108/130/33 136/128/33 107/129/33

vt -1.4 2.42487
f 109/131/33 136/128/33 108/130/33

vt -1.9799 1.9799
f 110/132/33 136/128/33 109/131/33

vt -2.42487 1.4
f 111/133/33 136/128/33 110/132/33

vt -2.70459 0.724693
f 112/134/33 136/128/33 111/133/33

vt -2.8 0
f 113/135/33 136/128/33 112/134/33

f 136/128/33 113/135/33 134/117/33

f 134/117/33 113/135/33 132/115/33

f 132/115/33 113/135/33 130/113/33

f 130/113/33 113/135/33 128/112/33

vt 0.724693 -2.70459
f 128/112/33 113/135/33 126/136/33

vt 0 -2.8
f 126/136/33 113/135/33 124/137/33

vt -0.724693 -2.70459
f 124/137/33 113/135/33 122/138/33

vt -1.4 -2.42487
f 122/138/33 113/135/33 120/139/33

vt -1.9799 -1.9799
f 120/139/33 113/135/33 118/140/33

vt -2.42487 -1.4
f 118/140/33 113/135/33 116/141/33

vt -2.70459 -0.724693
f 114/142/33 116/141/33 113/135/33

vn 0.898537 -0.232614 -0.372186
v 0.676148 2.77966 -0.181173
f 137/120/75 139/121/75 102/122/75 101/123/75 

vn 0.964249 -0.232614 -0.126946
v 0.7 2.77966 -0
f 135/120/76 140/121/76 139/122/76 137/123/76 

vn 0.964249 -0.232614 0.126946
v 0.676148 2.77966 0.181173
f 133/120/77 141/121/77 140/122/77 135/123/77 

vn 0.898537 -0.232614 0.372186
v 0.606218 2.77966 0.35
f 131/120/78 142/121/78 141/122/78 133/123/78 

vn 0.771591 -0.232614 0.592063
v 0.494975 2.77966 0.494975
f 129/120/79 143/121/79 142/122/79 131/123/79 

vn 0.592063 -0.232614 0.771591
v 0.35 2.77966 0.606218
f 127/120/80 144/121/80 143/122/80 129/123/80 

vn 0.372186 -0.232614 0.898537
v 0.181173 2.77966 0.676148
f 125/120/81 145/121/81 144/122/81 127/123/81 

vn 0.126946 -0.232614 0.964249
v 0 2.77966 0.7
f 123/120/82 146/121/82 145/122/82 125/123/82 

vn -0.126946 -0.232614 0.964249
v -0.181173 2.77966 0.676148
f 121/120/83 147/121/83 146/122/83 123/123/83 

vn -0.372186 -0.232614 0.898537
f 119/120/84 78/121/84 147/122/84 121/123/84 

vn -0.592063 -0.232614 0.771591
f 117/120/85 79/121/85 78/122/85 119/123/85 

vn -0.771591 -0.232614 0.592063
f 115/120/86 81/121/86 79/122/86 117/123/86 

vn -0.898537 -0.232614 0.372186
f 87/120/87 83/121/87 81/122/87 115/123/87 

f 78/112/39 72/101/39 147/136/39

f 72/101/39 78/112/39 74/42/39

vt 1.49168e-30 -1.4
f 147/136/39 72/101/39 73/143/39

vt 1.49168e-30 -2.8
f 147/136/39 73/143/39 146/144/39

v 0.303109 2.77966 0.175
f 146/144/39 73/143/39 148/49/39

vn 0.5 0 0.866025
f 73/105/88 71/106/88 70/107/88 148/108/88 

v 0.303109 2.77966 -0.175
f 148/105/4 70/106/4 25/107/4 149/108/4 

f 70/101/8 24/41/8 25/42/8

vn 0.5 1.83404e-16 -0.866025
f 149/105/89 25/106/89 28/107/89 75/108/89 

f 75/110/39 96/130/39 149/47/39

vt 1.49168e-30 2.8
f 75/110/39 94/145/39 96/130/39

f 75/110/39 76/109/39 94/145/39

f 149/47/39 96/130/39 98/131/39

f 149/47/39 98/131/39 148/49/39

f 144/139/39 148/49/39 98/131/39

f 145/138/39 148/49/39 144/139/39

f 146/144/39 148/49/39 145/138/39

f 144/139/39 98/131/39 100/132/39

f 144/139/39 100/132/39 143/140/39

f 143/140/39 100/132/39 102/133/39

f 143/140/39 102/133/39 142/141/39

f 142/141/39 102/133/39 141/142/39

f 141/142/39 102/133/39 139/134/39

vt -2.8 -6.52609e-30
f 141/142/39 139/134/39 140/146/39

