# Alias OBJ Model File
# Exported from SketchUp, (c) 2000-2012 Trimble Navigation Limited
# File units = inches

mtllib _buildlocFINAL.mtl

g Mesh1 Model

usemtl _Wood_Veneer_01_1
v 0.3125 0 -0.3125
vt -1.25 1.25
vn 0 -1 -0
v -0.3125 0 -0.3125
vt 1.25 1.25
v -0.3125 0 -0.375
vt 1.25 1.5
v 0.3125 0 -0.375
vt -1.25 1.5
f 1/1/1 2/2/1 3/3/1 4/4/1 

vt 1.25 0
vn 0 0 1
v 0.375 0 -0.3125
vt 1.5 0
v 0.375 0.0625 -0.3125
vt 1.5 0.25
v 0.3125 0.0625 -0.3125
vt 1.25 0.25
v -0.3125 0.0625 -0.3125
vt -1.25 0.25
v -0.375 0.0625 -0.3125
vt -1.5 0.25
v -0.375 0 -0.3125
vt -1.5 0
vt -1.25 0
f 1/5/2 5/6/2 6/7/2 7/8/2 8/9/2 9/10/2 10/11/2 2/12/2 

vt -1.5 1.25
v 0.375 0 -0.375
vt -1.5 1.5
f 5/13/1 1/1/1 4/4/1 11/14/1 

v 0.375 0 -0.234375
vt -1.5 0.9375
v 0.3125 0 -0.234375
vt -1.25 0.9375
f 5/13/1 12/15/1 13/16/1 1/1/1 

vn 1 0 -0
v 0.375 0.0625 -0.234375
vt 0.9375 0.25
vt 0.9375 0
f 6/8/3 14/17/3 12/18/3 5/5/3 

vn 0 1 -0
v 0.3125 0.0625 -0.234375
vt 1.25 0.9375
vt 1.5 0.9375
vt 1.5 1.25
f 7/2/4 15/19/4 14/20/4 6/21/4 

vt 0.9375 -6.93889e-16
vn 1 5.55112e-16 -4.77882e-17
vt 1.25 -6.93889e-16
vt 1.5 -6.93889e-16
v 0.3125 0.0625 -0.375
v 0.3125 0.0625 -0.15625
vt 0.625 0.25
v 0.3125 0.0625 0.15625
vt -0.625 0.25
v 0.3125 0.0625 0.234375
vt -0.9375 0.25
v 0.3125 0.0625 0.3125
v 0.3125 0.0625 0.375
v 0.3125 0 0.375
vt -1.5 -6.93889e-16
v 0.3125 0 0.3125
vt -1.25 -6.93889e-16
v 0.3125 0 0.234375
vt -0.9375 -6.93889e-16
v 0.3125 0 0.15625
vt -0.625 -6.93889e-16
v 0.3125 0 -0
vt -5.97353e-17 -6.93889e-16
v 0.3125 0 -0.15625
vt 0.625 -6.93889e-16
f 13/22/5 1/23/5 4/24/5 16/7/5 7/8/5 15/17/5 17/25/5 18/26/5 19/27/5 20/9/5 21/10/5 22/28/5 23/29/5 24/30/5 25/31/5 26/32/5 27/33/5 

v -0.3125 0 -0.234375
f 1/1/1 13/16/1 28/19/1 2/2/1 

v -0.375 0 -0.234375
vt -1.5 1.04083e-16
vn -9.10019e-18 1.11022e-16 1
vt -1.25 1.04083e-16
vt 1.25 1.04083e-16
vt 1.5 1.04083e-16
v -0.3125 0.0625 -0.234375
v -0.375 0.0625 -0.234375
f 29/34/6 28/35/6 13/36/6 12/37/6 14/7/6 15/8/6 30/9/6 31/10/6 

f 2/2/1 28/19/1 29/20/1 10/21/1 

v -0.3125 0.0625 -0.375
v -0.3125 0.0625 -0.15625
v -0.3125 0.0625 0.15625
v -0.3125 0.0625 0.234375
v -0.3125 0.0625 0.3125
v -0.3125 0.0625 0.375
v -0.3125 0 0.375
v -0.3125 0 0.3125
v -0.3125 0 0.234375
vt -0.9375 0
v -0.3125 0 0.15625
vt -0.625 0
v -0.3125 0 -0.15625
vt 0.625 0
f 2/5/3 3/6/3 32/7/3 8/8/3 30/17/3 33/25/3 34/26/3 35/27/3 36/9/3 37/10/3 38/11/3 39/12/3 40/38/3 41/39/3 42/40/3 28/18/3 

v -0.375 0 -0.375
vt 1.5 1.5
f 43/41/1 3/3/1 2/2/1 10/21/1 

v -0.375 0.0625 -0.375
vn 0 0 -1
f 44/7/7 32/8/7 3/5/7 43/6/7 

f 44/14/4 9/13/4 8/1/4 32/4/4 

vn -1 0 -0
f 43/11/8 10/12/8 9/9/8 44/10/8 

f 10/12/8 29/38/8 31/27/8 9/9/8 

v -0.375 0 -0.15625
v -0.375 0.0625 -0.15625
f 29/38/8 45/39/8 46/26/8 31/27/8 

vt 1.25 0.625
vt 1.5 0.625
f 28/19/1 42/42/1 45/43/1 29/20/1 

vt -1.25 0.625
f 13/16/1 27/44/1 42/42/1 28/19/1 

v 0.375 0 -0.15625
vt -1.5 0.625
f 12/15/1 47/45/1 27/44/1 13/16/1 

v 0.375 0.0152314 -0.15625
vt 0.625 0.0609256
f 12/18/3 48/46/3 47/40/3

f 12/18/3 14/17/3 48/46/3

v 0.375 0.0625 -0.15625
f 49/25/3 48/46/3 14/17/3

v 0.375 0.0152314 0.15625
vt -0.625 0.0609256
v 0.375 0.0625 0.15625
f 50/47/3 48/46/3 49/25/3 51/26/3 

vt 1.5 -0.625
v 0.625 0.0152314 0.15625
vt 2.5 -0.625
v 0.625 0.0152314 -0.15625
vt 2.5 0.625
f 48/43/4 50/48/4 52/49/4 53/50/4 

v 0.375 0 -0
vt 0 0
v 0.375 0 0.15625
f 54/51/3 47/40/3 48/46/3 50/47/3 55/39/3 

v 0.625 0 -0.15625
vt -2.5 0.625
v 0.625 0 -0
vt -2.5 0
f 56/52/1 57/53/1 54/11/1 47/45/1 

v 0.625 0 0.15625
f 56/40/3 53/46/3 52/47/3 58/39/3 57/51/3 

vt -1.5 0.0609256
vt -2.5 0.0609256
f 47/11/7 48/54/7 53/55/7 56/53/7 

f 46/7/7 33/8/7 17/9/7 49/10/7 48/54/7 47/11/7 27/12/7 42/5/7 45/6/7 

f 31/15/4 46/45/4 33/44/4 30/16/4 

v -0.375 0.875 -0.15625
vt -0.625 3.5
v -0.375 0.875 -0.234375
vt -0.9375 3.5
f 46/26/8 59/56/8 60/57/8 31/27/8 

vt 1.5 3.5
vn -8.58501e-08 -3.82214e-09 -1
v -0.375 0.9375 -0.15625
vt 1.5 3.75
v -0.375 1 -0.15625
vt 1.5 4
v -0.3125 0.999999 -0.15625
vt 1.25 4
v 0.3125 1 -0.15625
vt -1.25 4
v 0.3125 0.9375 -0.15625
vt -1.25 3.75
v -0.3125 0.9375 -0.15625
vt 1.25 3.75
f 59/58/9 61/59/9 62/60/9 63/61/9 64/62/9 65/63/9 66/64/9 33/8/9 46/7/9 

vt -0.625 3.75
vn -1 -4.44089e-16 8.88178e-17
v -0.375 0.875 0.15625
vt 0.625 3.5
v -0.375 0.9375 0.15625
vt 0.625 3.75
f 61/65/10 59/56/10 67/66/10 68/67/10 

v -0.375 0.9375 -0.234375
vt -0.9375 3.75
vn -1 -4.44089e-16 -3.55271e-16
f 69/68/11 60/57/11 59/56/11 61/65/11 

vn 1.93784e-16 -1.41301e-17 1
v -0.3125 0.9375 -0.234375
vt -1.5 3.75
vt -1.5 3.5
f 30/9/12 70/63/12 69/69/12 60/70/12 31/10/12 

v -0.3125 0.9375 -0.3125
vt 0.9375 3.75
f 71/64/3 70/71/3 30/17/3 8/8/3 

v 0.3125 0.9375 -0.3125
v 0.3125 0.9375 -0.234375
f 70/19/1 71/2/1 72/1/1 73/16/1 

v -0.375 0.9375 -0.313285
vt -1.5 1.25314
f 74/72/4 69/15/4 70/16/4 71/1/4 

v -0.375 1 -0.234375
vt -0.9375 4
vn -1 -1.77636e-15 -0
v -0.375 1 -0.3125
vt -1.25314 3.75
f 75/73/13 76/62/13 74/74/13 69/68/13 

vt -1.50015 0.937497
vn 3.67258e-05 1 -8.20917e-07
v -0.3125 0.999998 -0.234375
vt -1.25015 0.937497
v -0.3125 0.999998 -0.3125
vt -1.25015 1.25
vt -1.50015 1.25
f 75/75/14 77/76/14 78/77/14 76/78/14 

vt -1.5 4
vn 2.1739e-12 -3.20906e-11 1
v 0.375 0.9375 -0.234375
v 0.375 1 -0.234375
v 0.3125 1 -0.234375
vt -1.25 3.99999
f 75/79/15 69/69/15 70/63/15 73/64/15 79/59/15 80/60/15 81/61/15 77/80/15 

vn -1 -1.33227e-15 -3.55271e-16
vt -0.625 4
f 69/68/16 61/65/16 62/81/16 75/73/16 

vt -1.5 -0.625
v -0.375 0.9375 0.234375
vt -1.5 -0.9375
v -0.3125 0.9375 0.234375
vt -1.25 -0.9375
v -0.3125 0.9375 0.15625
vt -1.25 -0.625
f 66/44/4 70/16/4 69/15/4 61/45/4 68/82/4 82/83/4 83/84/4 84/85/4 

v -0.3125 0.999998 0.375
vt -1.5 3.99999
vn 1 7.77239e-16 -8.7386e-17
v -0.3125 0.9375 0.375
v -0.3125 0.9375 0.3125
v -0.3125 0.9375 -0.375
v -0.3125 0.999995 -0.374608
vt 1.49843 3.99998
vt 1.25 3.99999
vt 0.9375 3.99999
vt 0.625 4
v -0.3125 0.999999 0.15625
v -0.3125 0.999999 0.234375
vt -0.9375 3.99999
v -0.3125 0.999999 0.3125
f 85/86/17 86/69/17 87/63/17 83/68/17 84/65/17 66/67/17 70/71/17 71/64/17 88/59/17 89/87/17 78/88/17 77/89/17 63/90/17 90/81/17 91/91/17 92/80/17 

v 0.3125 0.9375 0.375
v 0.3125 1 0.375
f 86/63/2 93/64/2 94/61/2 85/80/2 

v 0.3125 0.9375 0.3125
vt 1.25 -1.25
vt -1.25 -1.25
vt -1.25 -1.5
vt 1.25 -1.5
f 95/92/4 87/93/4 86/94/4 93/95/4 

f 87/64/7 95/63/7 20/9/7 36/8/7 

v 0.3125 0.9375 0.234375
vt 1.25 -0.9375
f 96/84/1 95/93/1 87/92/1 83/96/1 

v 0.3125 0.875 0.234375
vt 0.9375 3.5
f 97/97/8 19/17/8 20/8/8 95/64/8 96/71/8 

vt -1.25 3.5
v 0.375 0.875 0.234375
v 0.375 0.0625 0.234375
f 19/9/7 97/98/7 98/70/7 99/10/7 

v 0.375 0.9375 0.234375
f 100/69/7 98/70/7 97/98/7 96/63/7 

v 0.375 0.875 0.15625
v 0.375 0.9375 0.15625
f 98/57/3 101/56/3 102/65/3 100/68/3 

v 0.3125 0.875 0.15625
f 97/84/1 103/85/1 101/82/1 98/83/1 

v 0.3125 0.9375 0.15625
f 96/71/8 104/67/8 103/66/8 97/97/8 

vt 1.25 -0.625
f 83/96/1 84/99/1 104/85/1 96/84/1 

f 35/27/3 34/26/3 84/65/3 83/68/3 

v -0.375 0.0625 0.15625
v -0.375 0.0625 0.234375
f 35/84/4 34/85/4 105/82/4 106/83/4 

f 19/96/4 18/99/4 34/85/4 35/84/4 

vt 1.5 -0.9375
f 99/100/4 51/48/4 18/99/4 19/96/4 

f 51/26/3 99/27/3 50/47/3

v 0.375 0 0.234375
f 107/38/3 50/47/3 99/27/3

f 50/47/3 107/38/3 55/39/3

f 24/84/1 25/85/1 55/82/1 107/83/1 

f 40/96/1 41/99/1 25/85/1 24/84/1 

v -0.375 0 0.234375
v -0.375 0 0.15625
f 108/100/1 109/48/1 41/99/1 40/96/1 

f 106/17/8 105/25/8 109/40/8 108/18/8 

vn -1 -1.36643e-16 -0
v -0.375 0.875 0.234375
f 106/17/18 110/97/18 67/66/18 105/25/18 

v -0.375 0.0625 0.3125
v -0.375 0.875 0.3125
vt 1.25 3.5
f 111/8/18 112/101/18 110/97/18 106/17/18 

v -0.375 0.0625 0.375
vn -1 -6.83214e-17 -8.88178e-16
v -0.375 0.875 0.375
f 113/7/19 114/58/19 112/101/19 111/8/19 

v -0.3125 0.875 0.375
f 37/9/2 115/98/2 114/70/2 113/10/2 

v 0.3125 0.875 0.375
f 21/8/2 116/101/2 115/98/2 37/9/2 

v 0.375 0.0625 0.375
v 0.375 0.875 0.375
f 117/7/2 118/58/2 116/101/2 21/8/2 

v 0.375 0.0625 0.3125
v 0.375 0.875 0.3125
f 119/9/3 120/98/3 118/70/3 117/10/3 

f 99/27/3 98/57/3 120/98/3 119/9/3 

v 0.375 0.9375 0.3125
f 121/63/3 120/98/3 98/57/3 100/68/3 

f 95/63/7 121/69/7 120/70/7 119/10/7 20/9/7 

vt 1.5 -1.25
f 96/96/4 95/92/4 121/102/4 100/100/4 

vt -0.937501 3.75
vn 1 1.27574e-06 -6.68102e-07
vt -0.625001 3.75
v 0.3125 1 0.15625
v 0.3125 1 0.234375
vt -0.937501 4
v 0.3125 1 0.3125
f 96/103/20 104/104/20 122/81/20 123/105/20 124/62/20 94/79/20 93/69/20 95/63/20 

f 100/100/4 102/48/4 104/99/4 96/96/4 

v 0.375 1 0.15625
v 0.375 1 0.234375
f 100/68/3 102/65/3 125/81/3 126/73/3 

v 0.375 1 -0.15625
v 0.375 0.9375 -0.15625
f 127/90/3 125/81/3 102/65/3 128/67/3 

vt 1.50001 -0.625001
vn -3.14186e-06 1 -2.8916e-07
vt 1.50001 0.624999
vt 1.25001 0.624999
vt 1.25001 -0.625001
f 125/106/21 127/107/21 64/108/21 122/109/21 

vt 1.25002 0.9375
vn -4.72755e-06 1 -1.1191e-07
vt 1.25002 0.625
vt 1.50002 0.625
vt 1.50002 0.9375
f 81/110/22 64/111/22 127/112/22 80/113/22 

vt 0.9375 4
vn 1 6.37823e-07 3.34071e-07
vt 0.625001 4
v 0.3125 0.9375 -0.375
v 0.3125 1 -0.374964
vt 1.49986 4
v 0.3125 1 -0.3125
f 81/114/23 64/115/23 65/67/23 73/71/23 72/64/23 129/59/23 130/116/23 131/61/23 

vt -1.24999 0.937467
vn -2.08981e-06 1 -8.17106e-06
vt -1.24999 0.624967
vt 1.25001 0.624968
vt 1.25001 0.937467
f 77/117/24 63/118/24 64/119/24 81/120/24 

vt -1.5001 0.937468
vn 2.56257e-05 1 -8.05914e-06
vt -1.5001 0.624968
vt -1.2501 0.624968
vt -1.2501 0.937468
f 75/121/25 62/122/25 63/123/25 77/124/25 

vt -1.25006 -0.625001
vn 1.41354e-05 1 -2.83268e-07
vt -1.25006 0.624999
vt -1.50006 0.624999
v -0.375 1 0.15625
vt -1.50006 -0.625001
f 90/125/26 63/126/26 62/127/26 132/128/26 

vt 1.25 -0.625002
vn -1.09935e-06 1 -5.72428e-07
vt 1.25 0.624998
vt -1.25 0.624998
vt -1.25 -0.625002
f 122/129/27 64/130/27 63/131/27 90/132/27 

vt 0.625001 3.99999
vn 1 3.8272e-06 2.55145e-07
vt -0.624999 3.99999
f 64/133/28 122/134/28 104/65/28 65/67/28 

vn -9.32825e-07 9.32822e-07 1
f 125/60/29 122/61/29 104/64/29 102/59/29 

vt 1.50001 -0.937498
vn -2.44244e-06 1 5.97101e-07
vt 1.50001 -0.624998
vt 1.25001 -0.624997
vt 1.25001 -0.937498
f 126/135/30 125/136/30 122/137/30 123/138/30 

vt 1.25001 -0.937481
vn -1.561e-06 1 4.8638e-06
vt 1.25 -0.62498
vt -1.24999 -0.624981
vt -1.24999 -0.937481
f 123/139/31 122/140/31 90/141/31 91/142/31 

vn 8.58496e-08 3.82273e-09 1
f 68/69/32 67/70/32 105/10/32 34/9/32 84/63/32 104/64/32 122/61/32 90/62/32 132/79/32 

vn -1 4.44089e-16 3.55271e-16
f 68/67/33 67/66/33 110/97/33 82/71/33 

v -0.375 0.875 -0.375
v -0.3125 0.875 -0.375
v 0.3125 0.875 -0.375
v 0.375 0.875 -0.375
v 0.375 0.875 -0.3125
v 0.375 0.875 -0.234375
v 0.3125 0.875 -0.234375
v 0.3125 0.875 -0.15625
vt -1.5 -1.25
vt -1.5 -1.5
vt 1.5 -1.5
v -0.375 0.875 -0.313228
vt 1.5 1.25291
f 133/41/1 134/3/1 135/4/1 136/14/1 137/13/1 138/15/1 139/16/1 140/44/1 103/85/1 97/84/1 98/83/1 120/143/1 118/144/1 116/94/1 115/95/1 114/145/1 112/102/1 110/100/1 67/48/1 59/43/1 60/20/1 141/146/1 

f 44/7/7 133/58/7 134/101/7 32/8/7 

vt -1.25291 3.5
f 9/9/8 141/147/8 133/70/8 44/10/8 

f 31/27/8 60/57/8 141/147/8 9/9/8 

f 74/74/8 141/147/8 60/57/8 69/68/8 

vt -1.25881 3.75062
vn -0.00707472 0.000497186 0.999975
vt -1.50883 3.75062
vt -1.50883 3.50062
vt -1.50881 0.250616
vt -1.25881 0.250617
f 71/148/34 74/149/34 141/150/34 9/151/34 8/152/34 

v -0.375 0.9375 -0.375
f 142/14/4 74/72/4 71/1/4 88/4/4 

v -0.375 1 -0.375
f 142/69/13 74/74/13 76/62/13 143/79/13 

f 142/69/8 133/70/8 141/147/8 74/74/8 

f 88/64/7 134/101/7 133/58/7 142/59/7 

f 88/59/3 71/64/3 8/8/3 32/7/3 134/58/3 

f 129/3/4 88/4/4 71/1/4 72/2/4 

vt 1.24957 3.99483
vn -0.000285244 0.00342282 -0.999994
vt -1.25043 3.99484
vt -1.25043 3.74485
vt 1.24957 3.74484
f 89/153/35 130/154/35 129/155/35 88/156/35 

vt -1.24998 1.24991
vn -5.21669e-06 1 -2.15319e-05
vt 1.25002 1.24991
vt 1.25002 1.49977
vt -1.24998 1.49835
f 78/157/36 131/158/36 130/159/36 89/160/36 

vt -1.24999 0.937496
vn -3.17184e-06 1 -9.32825e-07
vt 1.25001 0.937496
vt 1.25001 1.25
vt -1.24999 1.25
f 77/161/37 81/162/37 131/163/37 78/164/37 

v 0.375 1 -0.3125
vt 1.50002 1.25
vn -5.00732e-06 1 -1.11908e-07
vt 1.25002 1.25
f 144/165/38 131/166/38 81/110/38 80/113/38 

v 0.375 1 -0.375
vt 1.50002 1.5
vn -6.1542e-06 1 -1.00671e-06
vt 1.25002 1.49985
f 145/167/39 130/168/39 131/166/39 144/165/39 

v 0.375 0.9375 -0.375
vt -1.50043 3.74957
vn -0.000285234 0.000285233 -1
vt -1.25043 3.74957
vt -1.25043 3.99957
vt -1.50043 3.99957
f 146/169/40 129/170/40 130/171/40 145/172/40 

v 0.375 0.9375 -0.3125
f 146/41/4 129/3/4 72/2/4 147/21/4 

f 146/169/40 129/170/40 130/171/40 145/172/40 

f 146/69/7 136/70/7 135/98/7 129/63/7 

f 147/64/3 137/101/3 136/58/3 146/59/3 

f 79/71/3 138/97/3 137/101/3 147/64/3 

v 0.375 0.875 -0.15625
f 79/71/3 128/67/3 148/66/3 138/97/3 

f 73/19/4 65/42/4 128/43/4 79/20/4 

f 139/57/33 140/56/33 65/65/33 73/68/33 

f 138/15/1 148/45/1 140/44/1 139/16/1 

f 103/85/1 140/44/1 148/45/1 101/82/1 

vn -1 4.44089e-16 8.88178e-17
f 140/56/41 103/66/41 104/67/41 65/65/41 

f 104/64/2 103/101/2 101/58/2 102/59/2 

f 128/67/3 102/65/3 101/56/3 148/66/3 

f 102/48/4 128/43/4 65/42/4 104/99/4 

f 65/64/2 140/101/2 148/58/2 128/59/2 

f 127/60/29 64/61/29 65/64/29 128/59/29 

f 80/114/3 127/90/3 128/67/3 79/71/3 

f 144/61/3 80/114/3 79/71/3 147/64/3 

f 79/20/4 147/21/4 72/2/4 73/19/4 

f 147/59/2 72/64/2 7/8/2 6/7/2 137/58/2 

f 72/64/2 71/63/2 8/9/2 7/8/2 

f 8/1/4 7/2/4 16/3/4 32/4/4 

f 8/1/4 30/16/4 15/19/4 7/2/4 

f 9/13/4 31/15/4 30/16/4 8/1/4 

f 30/16/4 33/44/4 17/42/4 15/19/4 

f 70/71/3 66/67/3 33/25/3 30/17/3 

f 73/16/1 65/44/1 66/42/1 70/19/1 

f 84/99/1 66/42/1 65/44/1 104/85/1 

f 34/26/3 33/25/3 66/67/3 84/65/3 

f 34/85/4 33/44/4 46/45/4 105/82/4 

f 18/99/4 17/42/4 33/44/4 34/85/4 

f 51/48/4 49/43/4 17/42/4 18/99/4 

vt 0.625 -2.44516
vn 0.185783 0.982591 -0
vt 0.625 -1.42744
vt -0.625 -1.42744
vt -0.625 -2.44516
f 53/173/42 49/174/42 51/175/42 52/176/42 

f 48/54/7 49/10/7 53/55/7

vt 2.5 0.0609256
vt 1.5 0.0609256
f 52/177/2 51/7/2 50/178/2

f 109/11/2 41/12/2 25/5/2 55/6/2 50/178/2 51/7/2 18/8/2 34/9/2 105/10/2 

f 109/48/1 45/43/1 42/42/1 41/99/1 

vn -1 0 3.55271e-16
f 105/25/43 46/26/43 45/39/43 109/40/43 

vn -1 -6.83214e-17 1.77636e-16
f 105/25/44 67/66/44 59/56/44 46/26/44 

f 42/42/1 26/12/1 41/99/1

f 27/44/1 26/12/1 42/42/1

f 27/44/1 47/45/1 26/12/1

f 54/11/1 26/12/1 47/45/1

f 54/11/1 55/82/1 26/12/1

vt -2.5 -0.625
f 57/53/1 58/179/1 55/82/1 54/11/1 

vt 2.5 0
f 58/180/2 52/177/2 50/178/2 55/6/2 

f 25/85/1 26/12/1 55/82/1

f 25/85/1 41/99/1 26/12/1

f 15/19/4 17/42/4 49/43/4 14/20/4 

f 14/7/2 138/58/2 139/101/2 15/8/2 

f 6/8/3 137/101/3 138/97/3 14/17/3 

v 0.375 0.0625 -0.375
f 149/7/3 136/58/3 137/101/3 6/8/3 

f 16/9/7 135/98/7 136/70/7 149/10/7 

f 32/8/7 134/101/7 135/98/7 16/9/7 

f 129/63/7 135/98/7 134/101/7 88/64/7 

vn 1 -4.48216e-33 8.88178e-16
f 135/58/45 129/59/45 72/64/45 7/8/45 16/7/45 

f 73/68/8 72/63/8 7/9/8 15/27/8 139/57/8 

f 73/64/2 139/101/2 138/58/2 79/59/2 

f 149/41/4 16/3/4 7/2/4 6/21/4 

f 11/11/7 4/12/7 16/9/7 149/10/7 

f 32/8/7 16/9/7 4/12/7 3/5/7 

f 149/7/3 6/8/3 5/5/3 11/6/3 

f 89/153/35 130/154/35 129/155/35 88/156/35 

f 130/154/35 129/155/35 88/156/35 89/153/35 

vt 1.5047 3.99529
vn 0.00313766 0.00313753 -0.99999
vt 1.2547 3.99527
vt 1.2547 3.74529
vt 1.5047 3.74529
f 143/181/46 89/182/46 88/183/46 142/184/46 

f 89/182/46 88/183/46 142/184/46 143/181/46 

f 89/182/46 88/183/46 142/184/46 143/181/46 

vt -1.50023 1.24992
vn 5.83237e-05 1 -2.05071e-05
vt -1.25023 1.24992
vt -1.25023 1.49835
vt -1.50023 1.49992
f 76/185/47 78/186/47 89/187/47 143/188/47 

f 145/60/3 144/61/3 147/64/3 146/59/3 

v 0.375 0.9375 0.375
f 150/69/3 118/70/3 120/98/3 121/63/3 

f 93/64/2 116/101/2 118/58/2 150/59/2 

f 93/69/3 116/70/3 21/10/3 20/9/3 95/63/3 

f 86/63/2 115/98/2 116/101/2 93/64/2 

f 86/69/3 115/70/3 37/10/3 36/9/3 87/63/3 

v -0.375 0.9375 0.375
f 151/69/2 114/70/2 115/98/2 86/63/2 

v -0.375 0.9375 0.3125
f 152/64/8 112/101/8 114/58/8 151/59/8 

f 152/59/7 87/64/7 36/8/7 111/7/7 112/58/7 

f 86/94/4 87/93/4 152/143/4 151/144/4 

f 87/93/4 83/84/4 82/83/4 152/143/4 

f 36/9/3 35/27/3 83/68/3 87/63/3 

f 36/93/4 35/84/4 106/83/4 111/143/4 

f 20/92/4 19/96/4 35/84/4 36/93/4 

f 119/102/4 99/100/4 19/96/4 20/92/4 

v 0.375 0 0.3125
f 153/12/3 107/38/3 99/27/3 119/9/3 

f 23/93/1 24/84/1 107/83/1 153/143/1 

f 39/92/1 40/96/1 24/84/1 23/93/1 

v -0.375 0 0.3125
f 154/102/1 108/100/1 40/96/1 39/92/1 

vn -1 4.44089e-16 -3.55271e-16
vt 0.9375 -6.66134e-16
vt 1.25 -6.66134e-16
f 111/8/48 106/17/48 108/189/48 154/190/48 

vt -1.25 -1.04083e-16
vn 9.10019e-18 -1.11022e-16 -1
vt 1.25 -1.04083e-16
vt 1.5 -1.04083e-16
vt -1.5 -1.04083e-16
f 24/191/49 40/192/49 108/193/49 106/7/49 35/8/49 19/9/49 99/10/49 107/194/49 

f 83/64/7 35/8/7 106/7/7 110/58/7 82/59/7 

f 82/71/48 110/97/48 112/101/48 152/64/48 

vn -1 -2.22045e-15 -3.55271e-16
v -0.375 1 0.3125
v -0.375 1 0.234375
f 82/71/50 152/64/50 155/61/50 156/114/50 

v -0.375 1 0.375
f 157/60/13 155/61/13 152/64/13 151/59/13 

vt -1.50012 -1.49996
vn 3.03585e-05 1 9.02494e-06
vt -1.25012 -1.49996
vt -1.25012 -1.24996
vt -1.50012 -1.24996
f 157/195/51 85/196/51 92/197/51 155/198/51 

f 151/69/2 86/63/2 85/80/2 157/79/2 

vt -1.24999 -1.49996
vn -2.71138e-06 1 9.36057e-06
vt 1.25001 -1.49996
vt 1.25001 -1.24996
vt -1.24999 -1.24996
f 85/199/52 94/200/52 124/201/52 92/202/52 

v 0.375 1 0.3125
vt 1.50001 -1.25
vn -3.24468e-06 1 3.35631e-07
vt 1.25001 -1.25
vt 1.25001 -1.5
v 0.375 1 0.375
vt 1.50001 -1.5
f 158/203/53 124/204/53 94/205/53 159/206/53 

vn -1.29908e-12 1.91772e-11 -1
f 152/59/54 155/60/54 92/88/54 124/62/54 158/79/54 121/69/54 95/63/54 87/64/54 

vt -1.50009 -1.25
vn 2.23597e-05 1 -8.20917e-07
vt -1.25009 -1.25
vt -1.25009 -0.937503
vt -1.50009 -0.937503
f 155/207/55 92/208/55 91/209/55 156/210/55 

vt -1.24999 -1.25
vn -1.93108e-06 1 -9.32825e-07
vt 1.25001 -0.937504
vt -1.24999 -0.937504
f 92/211/56 124/204/56 123/212/56 91/213/56 

vt 1.50001 -0.9375
vn -3.04893e-06 1 -1.11908e-07
vt 1.25001 -0.9375
f 126/214/57 123/215/57 124/204/57 158/203/57 

vn -1.42406e-12 2.10221e-11 -1
f 82/59/58 156/60/58 91/88/58 123/62/58 126/79/58 100/69/58 96/63/58 83/64/58 

vn -1 -2.22045e-15 3.55271e-16
f 156/114/59 132/90/59 68/67/59 82/71/59 

vt -1.25007 -0.937483
vn 1.80525e-05 1 4.26671e-06
vt -1.25007 -0.624983
vt -1.50007 -0.624983
vt -1.50007 -0.937483
f 91/216/60 90/217/60 132/218/60 156/219/60 

vn -1 -1.33227e-15 8.88178e-17
f 61/65/61 68/67/61 132/90/61 62/81/61 

f 121/63/3 100/68/3 126/73/3 158/62/3 

f 150/69/3 121/63/3 158/62/3 159/79/3 

f 121/102/4 95/92/4 93/95/4 150/145/4 

f 159/60/2 94/61/2 93/64/2 150/59/2 

vn -1 4.44089e-16 -1.33227e-15
v -0.375 0 0.375
vt 1.5 -6.66134e-16
f 113/7/62 111/8/62 154/190/62 160/220/62 

f 113/144/4 37/94/4 36/93/4 111/143/4 

f 160/11/2 38/12/2 37/9/2 113/10/2 

f 154/102/1 39/92/1 38/95/1 160/145/1 

f 23/12/7 39/5/7 154/6/7 111/7/7 36/8/7 20/9/7 119/10/7 153/11/7 

f 22/94/1 38/95/1 39/92/1 23/93/1 

f 21/8/2 37/9/2 38/12/2 22/5/2 

f 37/94/4 21/95/4 20/92/4 36/93/4 

f 119/102/4 20/92/4 21/95/4 117/145/4 

v 0.375 0 0.375
f 117/7/2 21/8/2 22/5/2 161/6/2 

f 22/94/1 23/93/1 153/143/1 161/144/1 

f 161/11/3 153/12/3 119/9/3 117/10/3 

