# Alias OBJ Model File
# Exported from SketchUp, (c) 2000-2012 Trimble Navigation Limited
# File units = inches

mtllib _launchpadFINAL.mtl

g Mesh1 Model

usemtl Wood_Veneer_01
v 0.866025 0 -0.5
vt -3.4641 2
vn 0 -1 -0
v 0.866025 0 -0.25
vt -3.4641 1
v 0 0 -1
vt 0 4
f 1/1/1 2/2/1 3/3/1

vt 2 -1.2307e-14
vn 1 3.55271e-15 4.44089e-16
v 0.866025 0.03125 -0.5
vt 2 0.125
v 0.866025 0.03125 -0.25
vt 1 0.125
vt 1 -1.2307e-14
f 1/4/2 4/5/2 5/6/2 2/7/2 

vt 2 -6.15348e-15
vn 0.5 1.77636e-15 -0.866025
v -1.11022e-16 0.03125 -1
vt -2 0.125
vt -2 -6.15348e-15
f 3/8/3 6/5/3 4/9/3 1/10/3 

v -0.866025 0 -0.5
vt 2 3.07674e-15
vn -0.5 -8.88178e-16 -0.866025
v -0.866025 0.03125 -0.5
vt -2 3.07674e-15
f 7/11/4 8/5/4 6/9/4 3/12/4 

v -0.866025 0 0.5
vt 2 0
vn -1 0 -1.11022e-16
v -0.866025 0.03125 0.5
vt -2 0
f 9/13/5 10/5/5 8/9/5 7/14/5 

v -1.22465e-16 0 1
vn -0.5 0 0.866025
v -1.22465e-16 0.03125 1
f 11/13/6 12/5/6 10/9/6 9/14/6 

v 0.866025 0 0.5
vn 0.5 -8.88178e-16 0.866025
v 0.866025 0.03125 0.5
f 13/11/7 14/5/7 12/9/7 11/12/7 

v 0.866025 0 0.25
vt -1 6.15348e-15
vn 1 -1.77636e-15 2.22045e-16
v 0.866025 0.03125 0.25
vt -1 0.125
vt -2 6.15348e-15
f 15/15/8 16/16/8 14/9/8 13/17/8 

vn 1 0 4.44089e-16
vt -1 0
f 16/16/9 15/18/9 5/6/9

vt 1 -1.43581e-14
vn 1 4.14483e-15 6.66134e-16
vt -1 -1.43581e-14
v 0.866025 0 5.55112e-16
vt 8.71092e-17 -1.43581e-14
f 2/19/10 5/6/10 15/20/10 17/21/10 

vt -3.4641 -2.22045e-15
vt -3.4641 -1
f 17/22/1 15/23/1 3/3/1 2/2/1 

vt 3.4641 2
f 3/3/1 15/23/1 7/24/1

vt 3.4641 -2
f 9/25/1 7/24/1 15/23/1

vt 4.89859e-16 -4
f 11/26/1 9/25/1 15/23/1

vt -3.4641 -2
f 13/27/1 11/26/1 15/23/1

vt 1 -3.41071
vn 0.142857 0.989743 3.17207e-17
v 0.216506 0.125 -0.25
vt 1 -0.785714
v 0.216506 0.125 0.25
vt -1 -0.785714
vt -1 -3.41071
f 5/28/11 18/29/11 19/30/11 16/31/11 

vt 0.866025 0.5
vn 0 0 1
vt 3.4641 0.125
v 0.866025 0.125 -0.25
vt 3.4641 0.5
f 18/32/12 5/33/12 20/34/12

vt 1 0.5
vn 1 -1.18424e-15 4.44089e-16
v 0.866025 0.125 -0.5
vt 2 0.5
f 20/35/13 5/6/13 4/5/13 21/36/13 

vn 0 1 -0
vt -4.44089e-16 4
vt -4.89859e-16 -4
vt 3.4641 -1
vt 3.4641 1
f 4/24/14 6/37/14 8/1/14 10/27/14 12/38/14 14/25/14 16/39/14 5/40/14 

vt -2 0.5
vn 0.5 -5.92119e-16 -0.866025
v 0 0.125 -1
f 21/41/15 4/9/15 6/5/15 22/36/15 

vn -0.5 3.94746e-16 -0.866025
v -0.866025 0.125 -0.5
f 22/41/16 6/9/16 8/5/16 23/36/16 

vn -1 0 -0
v -0.866025 0.125 5.27356e-16
vt 2.10942e-15 0.5
v -0.866025 0.125 -0.25
vt -1 0.5
f 23/41/17 8/9/17 24/42/17 25/43/17 

vn -1 5.92119e-16 -1.11022e-16
vt 2.49402e-15 0.5
f 8/9/18 10/5/18 24/44/18

v -0.866025 0.125 0.5
vn -1 0 -2.22045e-16
vt 2.87861e-15 0.5
f 26/36/19 24/45/19 10/5/19

v -0.464263 0.125 -0.03125
vt -1.85705 0.125
vt -3.4641 -2.10942e-15
f 26/27/14 27/46/14 24/47/14

v -0.464263 0.125 0.03125
vt -1.85705 -0.125
f 27/46/14 26/27/14 28/48/14

vt 0.866025 -1
f 26/27/14 19/49/14 28/48/14

v -0.0625 0.125 0.4375
vt -0.25 -1.75
f 26/27/14 29/50/14 19/49/14

v -0.0625 0.125 0.5625
vt -0.25 -2.25
f 29/50/14 26/27/14 30/51/14

v -1.22465e-16 0.125 1
f 31/38/14 30/51/14 26/27/14

v -0.03125 0.125 0.5625
vt -0.125 -2.25
f 30/51/14 31/38/14 32/52/14

v 0.03125 0.125 0.5625
vt 0.125 -2.25
f 32/52/14 31/38/14 33/53/14

v 0.0625 0.125 0.5625
vt 0.25 -2.25
f 33/53/14 31/38/14 34/54/14

f 34/54/14 31/38/14 19/49/14

v 0.866025 0.125 0.5
f 31/38/14 35/25/14 19/49/14

vn 0.5 1.97373e-16 0.866025
f 31/41/20 12/9/20 14/5/20 35/36/20 

f 26/41/6 10/9/6 12/5/6 31/36/6 

vn 1 1.18424e-15 4.44089e-16
v 0.866025 0.125 0.25
f 35/41/21 14/9/21 36/43/21

v 0.866025 0.0625 0.25
vt -1 0.25
vn 1 0 -0
f 37/55/22 36/43/22 14/9/22 16/16/22 

vt -3.4641 0.125
vn 0 0 -1
vt -0.866025 0.5
vt -3.4641 0.5
vt -3.4641 0.25
f 16/56/23 19/57/23 36/58/23 37/59/23 

f 36/39/14 19/49/14 35/25/14

v 0.0625 0.125 0.53125
vt 0.25 -2.125
f 34/54/14 19/49/14 38/60/14

v 0.0625 0.125 0.46875
vt 0.25 -1.875
f 38/60/14 19/49/14 39/61/14

v 0.0625 0.125 0.4375
vt 0.25 -1.75
f 39/61/14 19/49/14 40/62/14

v 0.03125 0.125 0.4375
vt 0.125 -1.75
f 19/49/14 41/63/14 40/62/14

v -0.03125 0.125 0.4375
vt -0.125 -1.75
f 19/49/14 42/64/14 41/63/14

f 19/49/14 29/50/14 42/64/14

v -0.0625 0.125 0.46875
vt -0.25 -1.875
v -0.0625 0.125 0.53125
vt -0.25 -2.125
v -9.71445e-17 0.125 0.53125
vt -3.88578e-16 -2.125
v -9.71445e-17 0.125 0.46875
vt -3.88578e-16 -1.875
f 39/61/14 40/62/14 41/63/14 42/64/14 29/50/14 43/65/14 44/66/14 30/51/14 32/52/14 33/53/14 34/54/14 38/60/14 45/67/14 46/68/14 

vt -1.75 0.5
v 0.0625 0.1875 0.4375
vt -1.75 0.75
v 0.0625 0.1875 0.46875
vt -1.875 0.75
vt -1.875 0.5
f 40/69/22 47/70/22 48/71/22 39/72/22 

vt -0.25 0.5
vt -0.125 0.5
v 0.03125 0.1875 0.4375
vt -0.125 0.75
vt -0.25 0.75
f 40/73/23 41/74/23 49/75/23 47/76/23 

vt 0.125 0.5
v -0.03125 0.1875 0.4375
vt 0.125 0.75
f 41/74/23 42/77/23 50/78/23 49/75/23 

v -0.0625 0.1875 0.4375
vt 0.25 0.75
vt 0.25 0.5
f 51/79/23 50/78/23 42/77/23 29/80/23 

v -0.0625 1.1875 0.4375
vt 0.25 4.75
v -0.03125 1.1875 0.4375
vt 0.125 4.75
f 52/81/23 53/82/23 50/78/23 51/79/23 

v -0.0625 1.1875 0.25
vt 0.25 -1
v -0.03125 1.1875 0.25
vt 0.125 -1
f 54/83/1 55/84/1 53/63/1 52/62/1 

v -0.0625 1.25 0.25
vt 0.25 5
v -0.03125 1.25 0.25
vt 0.125 5
f 56/85/23 57/86/23 55/82/23 54/81/23 

v -0.0625 1.25 0.4375
v -0.03125 1.25 0.4375
vt -0.125 -1
vt -0.25 -1
f 58/50/14 59/64/14 57/87/14 56/88/14 

v -0.0625 1.3125 0.4375
vt 0.25 5.25
v -0.03125 1.3125 0.4375
vt 0.125 5.25
f 58/85/23 60/89/23 61/90/23 59/86/23 

vt 1.75 5
v -0.0625 1.25 0.46875
vt 1.875 5
v -0.0625 1.3125 0.46875
vt 1.875 5.25
vt 1.75 5.25
f 58/91/17 62/92/17 63/93/17 60/94/17 

v -0.0625 1.25 0.5625
v -0.03125 1.25 0.5625
v -0.03125 1.25 0.5
vt -0.125 -2
v -0.0625 1.25 0.53125
f 64/51/14 65/52/14 66/95/14 59/64/14 58/50/14 62/65/14 67/66/14 

v -0.0625 1.1875 0.5625
vt -0.25 4.75
v -0.03125 1.1875 0.5625
vt -0.125 4.75
vt -0.125 5
vt -0.25 5
f 68/96/12 69/97/12 65/98/12 64/99/12 

v -0.0625 1.1875 0.53125
v -0.0625 1.1875 0.46875
f 52/62/1 53/63/1 69/53/1 68/54/1 70/60/1 71/61/1 

f 58/85/23 59/86/23 53/82/23 52/81/23 

vt 1 4.75
vt 1.75 4.75
vt 1 5
f 55/100/17 53/101/17 59/91/17 57/102/17 

v 0.03125 1.1875 0.4375
v 0.03125 1.1875 0.25
f 72/64/1 53/63/1 55/84/1 73/87/1 

f 49/75/23 50/78/23 53/82/23 72/97/23 

v -0.03125 0.1875 0.5625
v -0.0625 0.1875 0.5625
v -0.0625 0.1875 0.53125
v -0.0625 0.1875 0.46875
v -9.71445e-17 0.1875 0.46875
vt 3.88578e-16 -1.875
v -9.71445e-17 0.1875 0.53125
vt 3.88578e-16 -2.125
v 0.0625 0.1875 0.53125
v 0.0625 0.1875 0.5625
v 0.03125 0.1875 0.5625
f 74/53/1 75/54/1 76/60/1 77/61/1 51/62/1 50/63/1 49/64/1 47/50/1 48/65/1 78/103/1 79/104/1 80/66/1 81/51/1 82/52/1 

f 30/73/12 32/74/12 74/75/12 75/76/12 

f 82/78/12 74/75/12 32/74/12 33/77/12 

v 0.03125 1.1875 0.5625
f 83/82/12 69/97/12 74/75/12 82/78/12 

v 0.03125 1.25 0.5625
f 84/86/12 65/98/12 69/97/12 83/82/12 

v 0.03125 1.3125 0.5625
v -0.03125 1.3125 0.5625
vt -0.125 5.25
f 85/90/12 86/105/12 65/98/12 84/86/12 

v -0.0625 1.3125 0.5625
v -0.0625 1.3125 0.53125
v -0.03125 1.3125 0.5
vt 0.125 -2
v 0.03125 1.3125 0.5
v 0.03125 1.3125 0.4375
v 0.0625 1.3125 0.4375
v 0.0625 1.3125 0.46875
v 0.0625 1.3125 0.53125
v 0.0625 1.3125 0.5625
f 87/54/1 88/60/1 63/61/1 60/62/1 61/63/1 89/106/1 90/95/1 91/64/1 92/50/1 93/65/1 94/66/1 95/51/1 85/52/1 86/53/1 

vt 2.25 5.25
vt 2.125 5.25
vt 2.125 5
vt 2.25 5
f 87/107/17 88/108/17 67/109/17 64/110/17 

v -0.0625 1.5 0.5625
vt 2.25 6
v -0.0625 1.5 0.53125
vt 2.125 6
f 96/111/17 97/112/17 88/108/17 87/107/17 

v -0.0625 1.5 0.4375
v -0.03125 1.5 0.4375
v -0.03125 1.5 0.5625
v -0.0625 1.5 0.46875
f 98/62/1 99/63/1 100/53/1 96/54/1 97/60/1 101/61/1 

v -0.0625 1.5 0.1875
vt 0.25 -0.75
v -0.03125 1.5 0.1875
vt 0.125 -0.75
f 102/113/1 103/114/1 99/63/1 98/62/1 

v -0.0625 1.625 0.1875
vt 0.25 6.5
v -0.03125 1.625 0.1875
vt 0.125 6.5
vt 0.125 6
vt 0.25 6
f 104/115/23 105/116/23 103/117/23 102/118/23 

v -0.0625 1.625 0.4375
v -0.03125 1.625 0.4375
vt -0.125 -0.75
vt -0.25 -0.75
f 106/50/14 107/64/14 105/119/14 104/120/14 

f 106/115/23 107/116/23 99/117/23 98/118/23 

v -0.03125 1.625 0.46875
vt -0.125 -1.875
v -0.0625 1.625 0.46875
f 108/121/14 107/64/14 106/50/14 109/65/14 

v 0.03125 1.625 0.46875
vt 0.125 -1.875
v 0.03125 1.625 0.4375
f 108/121/14 110/122/14 111/63/14 107/64/14 

v -0.03125 1.625 0.53125
vt -0.125 -2.125
v 0.03125 1.625 0.53125
vt 0.125 -2.125
f 112/123/14 113/124/14 110/122/14 108/121/14 

v -0.03125 1.625 0.5625
v 0.03125 1.625 0.5625
f 114/52/14 115/53/14 113/124/14 112/123/14 

vt -0.125 6.5
vt -0.125 6
v 0.03125 1.5 0.5625
f 115/116/12 114/125/12 100/126/12 116/117/12 

vt -0.25 6
v -0.0625 1.625 0.5625
vt -0.25 6.5
f 96/127/12 100/126/12 114/125/12 117/128/12 

vt -0.25 5.25
f 87/129/12 86/105/12 100/126/12 96/127/12 

f 64/99/12 65/98/12 86/105/12 87/129/12 

vt -2.25 5
vt -2 5
vt -2 5.25
vt -1.75 5.25
vt -1.75 6
vt -2.25 6
vt -2.25 5.25
f 65/130/22 66/131/22 89/132/22 61/133/22 99/134/22 100/135/22 86/136/22 

v 0.03125 1.25 0.5
f 65/52/14 84/53/14 118/106/14 66/95/14 

v 0.03125 1.25 0.4375
v 0.0625 1.25 0.5625
v 0.0625 1.25 0.53125
v 0.0625 1.25 0.46875
v 0.0625 1.25 0.4375
f 119/63/14 118/106/14 84/53/14 120/54/14 121/60/14 122/61/14 123/62/14 

vt 2 5
vt 2 5.25
f 91/94/17 119/91/17 118/137/17 90/138/17 

f 119/98/23 91/105/23 92/129/23 123/99/23 

v 0.03125 1.5 0.4375
v 0.0625 1.5 0.4375
f 92/129/23 91/105/23 124/126/23 125/127/23 

f 99/117/23 124/126/23 91/105/23 61/90/23 

f 124/126/23 99/117/23 107/116/23 111/125/23 

v 0.03125 1.5 0.1875
f 124/64/1 99/63/1 103/114/1 126/119/1 

f 116/52/1 100/53/1 99/63/1 124/64/1 

f 116/117/12 100/126/12 86/105/12 85/90/12 

v 0.0625 1.5 0.5625
f 127/118/12 116/117/12 85/90/12 95/89/12 

v 0.0625 1.625 0.5625
f 128/115/12 115/116/12 116/117/12 127/118/12 

v 0.0625 1.625 0.53125
f 113/124/14 115/53/14 128/54/14 129/60/14 

vt -1.75 6.5
vt -1.875 6.5
vt -2.125 6.5
vt -2.25 6.5
f 116/135/22 124/134/22 111/139/22 110/140/22 113/141/22 115/142/22 

v 0.0625 1.5 0.46875
v 0.0625 1.5 0.53125
f 127/51/1 116/52/1 124/64/1 125/50/1 130/65/1 131/66/1 

vt 1.75 6
f 118/137/17 84/110/17 85/107/17 116/111/17 124/143/17 91/94/17 90/138/17 

vt -2.25 4.75
vn 1 -5.55112e-17 2.77556e-17
vt -1.75 4.75
vt -1.75 5
f 83/144/24 72/145/24 119/146/24 118/131/24 84/130/24 

v 0.0625 1.1875 0.5625
v 0.0625 1.1875 0.4375
v 0.0625 1.1875 0.46875
v 0.0625 1.1875 0.53125
f 132/51/1 83/52/1 72/64/1 133/50/1 134/65/1 135/66/1 

f 120/85/12 84/86/12 83/82/12 132/81/12 

f 95/89/12 85/90/12 84/86/12 120/85/12 

vt -2.125 5
vt -2.125 5.25
f 120/130/22 121/147/22 94/148/22 95/136/22 

vt -2.125 4.75
f 132/144/22 135/149/22 121/147/22 120/130/22 

vt -2.25 0.75
vt -2.125 0.75
f 81/150/22 80/151/22 135/149/22 132/144/22 

vt -2.125 0.5
vt -2.25 0.5
f 38/152/22 80/151/22 81/150/22 34/153/22 

vt 3.88578e-16 0.5
vt 3.88578e-16 0.75
f 80/76/23 38/73/23 45/154/23 79/155/23 

f 45/67/14 38/60/14 39/61/14 46/68/14 

vt -3.88578e-16 0.75
vt -3.88578e-16 0.5
f 39/80/12 48/79/12 78/156/12 46/157/12 

f 48/65/1 80/66/1 79/104/1 78/103/1 

vt -1.875 4.75
f 134/158/22 135/149/22 80/151/22 48/71/22 

vt -1.875 5
f 122/159/22 121/147/22 135/149/22 134/158/22 

vt -1.875 5.25
f 93/160/22 94/148/22 121/147/22 122/159/22 

vt -1.875 6
vt -2.125 6
f 130/161/22 131/162/22 94/148/22 93/160/22 

v 0.0625 1.625 0.46875
f 136/140/22 129/141/22 131/162/22 130/161/22 

f 136/61/14 110/122/14 113/124/14 129/60/14 

v 0.0625 1.625 0.4375
f 111/63/14 110/122/14 136/61/14 137/62/14 

f 137/139/22 136/140/22 130/161/22 125/134/22 

f 125/134/22 130/161/22 93/160/22 92/133/22 

f 92/133/22 93/160/22 122/159/22 123/146/22 

f 123/146/22 122/159/22 134/158/22 133/145/22 

f 133/145/22 134/158/22 48/71/22 47/70/22 

f 47/76/23 49/75/23 72/97/23 133/96/23 

f 72/97/23 119/98/23 123/99/23 133/96/23 

vt -1 4.75
v 0.03125 1.25 0.25
vt -1 5
f 72/145/22 73/163/22 138/164/22 119/146/22 

v 0.0625 1.1875 0.25
f 133/50/1 72/64/1 73/87/1 139/88/1 

v 0.0625 1.25 0.25
f 139/96/23 73/97/23 138/98/23 140/99/23 

f 73/97/23 55/82/23 57/86/23 138/98/23 

f 59/64/14 66/95/14 138/84/14 57/87/14 

f 59/146/22 61/133/22 89/132/22 66/131/22 

f 61/63/1 91/64/1 90/95/1 89/106/1 

f 89/90/23 90/105/23 66/86/23

f 118/98/23 66/86/23 90/105/23

f 119/63/14 138/84/14 66/95/14 118/106/14 

f 140/83/14 138/84/14 119/63/14 123/62/14 

f 140/164/22 123/146/22 133/145/22 139/163/22 

vt 2.25 4.75
f 53/101/17 69/165/17 65/110/17 66/137/17 59/91/17 

f 83/52/1 69/53/1 53/63/1 72/64/1 

v 0.0625 1.625 0.1875
vt -0.75 6.5
v 0.0625 1.5 0.1875
vt -0.75 6
f 141/166/22 137/139/22 125/134/22 142/167/22 

v 0.03125 1.625 0.1875
f 141/113/14 143/114/14 111/63/14 137/62/14 

f 142/127/23 126/126/23 143/125/23 141/128/23 

f 125/50/1 124/64/1 126/119/1 142/120/1 

f 125/127/23 124/126/23 111/125/23 137/128/23 

f 124/134/22 126/167/22 143/166/22 111/139/22 

f 126/126/23 103/117/23 105/116/23 143/125/23 

f 99/134/22 103/167/22 105/166/22 107/139/22 

f 143/114/14 105/119/14 107/64/14 111/63/14 

f 100/135/22 99/134/22 107/139/22 108/140/22 112/141/22 114/142/22 

v -0.0625 1.625 0.53125
f 144/66/14 112/123/14 108/121/14 109/65/14 

f 114/52/14 112/123/14 144/66/14 117/51/14 

vt 2.25 6.5
vt 2.125 6.5
f 117/168/17 144/169/17 97/112/17 96/111/17 

vt 1.875 6
vt 1.875 6.5
f 101/170/17 97/112/17 144/169/17 109/171/17 

f 63/93/17 88/108/17 97/112/17 101/170/17 

f 62/92/17 67/109/17 88/108/17 63/93/17 

vt 1.875 4.75
vn -1 -2.22045e-16 -0
vt 2.125 4.75
f 71/172/25 70/173/25 67/109/25 62/92/25 

vt 1.875 0.75
vn -1 1.38778e-17 -0
vt 2.125 0.75
f 77/174/26 76/175/26 70/173/26 71/172/26 

vt 1.875 0.5
vt 2.125 0.5
f 43/176/17 44/177/17 76/175/17 77/174/17 

f 29/50/14 44/66/14 43/65/14

f 29/50/14 30/51/14 44/66/14

vt 2.25 0.75
vt 2.25 0.5
f 75/178/17 76/175/17 44/177/17 30/179/17 

f 68/165/26 70/173/26 76/175/26 75/178/26 

f 64/110/25 67/109/25 70/173/25 68/165/25 

f 75/76/12 74/75/12 69/97/12 68/96/12 

vt 1.75 0.5
vt 1.75 0.75
f 29/180/17 43/176/17 77/174/17 51/181/17 

f 51/181/26 77/174/26 71/172/26 52/101/26 

f 52/101/25 71/172/25 62/92/25 58/91/25 

f 54/100/25 52/101/25 58/91/25 56/102/25 

f 60/94/17 63/93/17 101/170/17 98/143/17 

vt 1.75 6.5
f 98/143/17 101/170/17 109/171/17 106/182/17 

vt 0.75 6
vt 0.75 6.5
f 102/183/17 98/143/17 106/182/17 104/184/17 

f 98/118/23 99/117/23 61/90/23 60/89/23 

f 127/135/22 131/162/22 129/141/22 128/142/22 

f 95/136/22 94/148/22 131/162/22 127/135/22 

f 45/152/22 46/72/22 78/71/22 79/151/22 

f 81/79/12 82/78/12 33/77/12 34/80/12 

f 132/81/12 83/82/12 82/78/12 81/79/12 

v -0.401763 0.125 0.03125
vt -1.60705 -0.125
f 28/48/14 19/49/14 145/185/14

v -0.32476 0.125 -0.125
vt -1.29904 0.5
f 19/49/14 146/186/14 145/185/14

vt 0.866025 1
f 19/49/14 18/187/14 146/186/14

f 23/1/14 146/186/14 18/187/14

f 23/1/14 27/46/14 146/186/14

f 25/2/14 24/47/14 27/46/14 23/1/14 

v -0.401763 0.125 -0.03125
vt -1.60705 0.125
f 27/46/14 28/48/14 145/185/14 147/188/14 146/186/14 

v -0.464263 1.375 0.03125
vt 0.125 5.5
v -0.464263 1.375 -0.03125
vt -0.125 5.5
f 28/77/17 148/189/17 149/190/17 27/74/17 

vt -1.60705 0.5
v -0.401763 1.375 0.03125
vt -1.60705 5.5
vt -1.85705 5.5
vt -1.85705 0.5
f 145/191/12 150/192/12 148/193/12 28/194/12 

v -0.401763 1.375 -0.03125
f 147/77/22 151/189/22 150/190/22 145/74/22 

vt 1.85705 0.5
vt 1.85705 5.5
vt 1.60705 5.5
vt 1.60705 0.5
f 27/195/23 149/196/23 151/197/23 147/198/23 

v -0.464263 1.4375 -0.03125
vt 1.85705 5.75
v -0.401763 1.4375 -0.03125
vt 1.60705 5.75
f 152/199/23 153/200/23 151/197/23 149/196/23 

v -0.464263 1.4375 0.03125
v -0.401763 1.4375 0.03125
f 154/48/14 155/185/14 153/188/14 152/46/14 

vt -1.60705 5.75
vt -1.85705 5.75
f 148/193/12 150/192/12 155/201/12 154/202/12 

vt 1.60705 -0.125
vt 1.85705 -0.125
vt 1.85705 0.125
vt 1.60705 0.125
f 150/203/1 148/204/1 149/205/1 151/206/1 

vt -0.125 5.75
vt 0.125 5.75
f 152/207/17 149/190/17 148/189/17 154/208/17 

v -0.214263 1.375 -0.03125
vt 0.857051 0.125
v -0.214263 1.375 0.03125
vt 0.857051 -0.125
f 150/203/1 151/206/1 156/209/1 157/210/1 

f 155/207/22 150/190/22 151/189/22 153/208/22 

v -0.214263 1.4375 0.03125
vt -0.857051 5.75
vt -0.857051 5.5
f 158/211/12 155/201/12 150/192/12 157/212/12 

v -0.214263 1.4375 -0.03125
vt -0.857051 0.125
vt -0.857051 -0.125
f 159/213/14 153/188/14 155/185/14 158/214/14 

vt 0.857051 5.5
vt 0.857051 5.75
f 156/215/23 151/197/23 153/200/23 159/216/23 

f 158/207/22 157/190/22 156/189/22 159/208/22 

f 147/188/14 146/186/14 27/46/14

f 146/186/14 27/46/14 28/48/14 145/185/14 147/188/14 

f 147/188/14 145/185/14 146/186/14

f 22/3/14 23/1/14 18/187/14

f 22/3/14 18/187/14 21/24/14

f 20/40/14 21/24/14 18/187/14

