# Alias OBJ Model File
# Exported from SketchUp, (c) 2000-2012 Trimble Navigation Limited
# File units = inches

mtllib Pyramid2.mtl

g Mesh1 Model

usemtl FrontColor
v -0.75 0 -0.75
vt 0.75 0.75
vn 0 -1 -0
v -0.625 0 -0.625
vt 0.625 0.625
v -0.75 0 0.75
vt 0.75 -0.75
f 1/1/1 2/2/1 3/3/1

v 0.75 0 -0.75
vt -0.75 0.75
f 2/2/1 1/1/1 4/4/1

v 0 2.5 -0
vt 0 2.39457
vn -4.72623e-18 0.287348 -0.957826
vt -0.75 -0.215511
vt 0.75 -0.215511
f 5/5/2 4/6/2 1/7/2

vn 0.957826 0.287348 3.30836e-17
vt 3.08149e-33 2.39457
v 0.75 0 0.75
f 4/7/3 5/8/3 6/6/3

vt 3.85186e-34 2.39457
vn -4.72623e-18 0.287348 0.957826
f 5/9/4 3/6/4 6/7/4

vt -7.70372e-34 2.39457
vn -0.957826 0.287348 9.45245e-18
f 5/10/5 1/6/5 3/7/5

v -0.625 0 0.625
vt 0.625 -0.625
vt -0.75 -0.75
f 7/11/1 6/12/1 3/3/1

v 0.625 0 0.625
vt -0.625 -0.625
f 6/12/1 7/11/1 8/13/1

v 0 2.08333 -1.11022e-16
vt -7.09975e-33 1.99547
vn -6.12519e-17 -0.287348 -0.957826
vt -0.625 -0.179592
vt 0.625 -0.179592
f 9/14/6 8/15/6 7/16/6

vt -1.11022e-16 1.99547
vn -0.957826 -0.287348 2.04173e-17
v 0.625 0 -0.625
f 9/17/7 10/15/7 8/16/7

vt 1.26218e-32 1.99547
vn 1.08892e-16 -0.287348 0.957826
f 9/18/8 2/15/8 10/16/8

vn 0.957826 -0.287348 4.21957e-16
vt 1.11022e-16 1.99547
f 2/16/9 9/19/9 7/15/9

f 3/3/1 2/2/1 7/11/1

vt -0.625 0.625
f 2/2/1 4/4/1 10/20/1

f 10/20/1 4/4/1 8/13/1

f 6/12/1 8/13/1 4/4/1