v -0.335544 -0.024772 0.335544
v 0.000000 -0.024772 0.335544
v 0.335544 -0.024772 0.335544
v -0.335544 0.024772 0.335544
v 0.000000 0.024772 0.335544
v 0.335544 0.024772 0.335544
v -0.335544 0.024772 0.000000
v 0.000000 0.024772 0.000000
v 0.335544 0.024772 0.000000
v -0.335544 0.024772 -0.335544
v 0.000000 0.024772 -0.335544
v 0.335544 0.024772 -0.335544
v -0.335544 -0.024772 -0.335544
v 0.000000 -0.024772 -0.335544
v 0.335544 -0.024772 -0.335544
v -0.335544 -0.024772 0.000000
v 0.000000 -0.024772 0.000000
v 0.335544 -0.024772 0.000000
vt 0.731370 0.990387
vt 0.513433 0.990569
vt 0.513384 0.936085
vt 0.731323 0.935916
vt 0.295497 0.990760
vt 0.295453 0.936264
vt 0.513193 0.718149
vt 0.731135 0.717994
vt 0.295255 0.718311
vt 0.513035 0.500215
vt 0.730965 0.500080
vt 0.295090 0.500348
vt 0.513005 0.445731
vt 0.730945 0.445654
vt 0.295068 0.445804
vt 0.512962 0.227793
vt 0.730899 0.227770
vt 0.295026 0.227813
vt 0.512978 0.009855
vt 0.730915 0.009857
vt 0.295042 0.009850
vt 0.240774 0.718358
vt 0.240592 0.500411
vt 0.240977 0.936306
vt 0.785433 0.500016
vt 0.785621 0.717946
vt 0.785815 0.935877
vn -0.577350 -0.577350 0.577350
vn 0.000000 -0.707107 0.707107
vn 0.000000 0.707107 0.707107
vn -0.577350 0.577350 0.577350
vn 0.577350 -0.577350 0.577350
vn 0.577350 0.577350 0.577350
vn 0.000000 1.000000 0.000000
vn -0.707107 0.707107 0.000000
vn 0.707107 0.707107 0.000000
vn 0.000000 0.707107 -0.707107
vn -0.577350 0.577350 -0.577350
vn 0.577350 0.577350 -0.577350
vn 0.000000 -0.707107 -0.707107
vn -0.577350 -0.577350 -0.577350
vn 0.577350 -0.577350 -0.577350
vn 0.000000 -1.000000 0.000000
vn -0.707107 -0.707107 0.000000
vn 0.707107 -0.707107 0.000000
s 1
f 1/1/1 2/2/2 5/3/3 4/4/4
f 2/2/2 3/5/5 6/6/6 5/3/3
f 4/4/4 5/3/3 8/7/7 7/8/8
f 5/3/3 6/6/6 9/9/9 8/7/7
f 7/8/8 8/7/7 11/10/10 10/11/11
f 8/7/7 9/9/9 12/12/12 11/10/10
f 10/11/11 11/10/10 14/13/13 13/14/14
f 11/10/10 12/12/12 15/15/15 14/13/13
f 13/14/14 14/13/13 17/16/16 16/17/17
f 14/13/13 15/15/15 18/18/18 17/16/16
f 16/17/17 17/16/16 2/19/2 1/20/1
f 17/16/16 18/18/18 3/21/5 2/19/2
f 18/22/18 15/23/15 12/12/12 9/9/9
f 3/24/5 18/22/18 9/9/9 6/6/6
f 13/25/14 16/26/17 7/8/8 10/11/11
f 16/26/17 1/27/1 4/4/4 7/8/8