v -0.147414 -0.100000 0.100000
v -0.126916 0.000000 0.100000
v -0.126916 0.100000 0.100000
v -0.126916 0.100000 -0.100000
v -0.126916 0.000000 -0.100000
v -0.147414 -0.100000 -0.100000
v -0.197431 -0.220978 -0.100000
v -0.197431 -0.220978 0.100000
v -0.229871 -0.280816 -0.100000
v -0.229871 -0.280816 0.100000
v -0.235899 -0.365709 -0.100000
v -0.235899 -0.365709 0.100000
v -0.271378 -0.388993 -0.160012
v -0.271378 -0.388993 0.160012
v -0.272612 -0.478543 -0.162943
v -0.272612 -0.478543 0.162943
v -0.137543 0.185855 0.100000
v -0.137543 0.185855 -0.100000
v -0.189661 0.271710 0.106872
v -0.189661 0.271710 -0.106872
v -0.189661 0.341257 0.106872
v -0.189661 0.341257 -0.106872
v -0.108692 0.341257 0.106872
v -0.108692 0.341257 -0.106872
v -0.045647 0.341257 -0.106872
v -0.045647 0.341257 0.106872
v -0.189661 0.405403 0.106872
v -0.108692 0.412037 0.106872
v -0.189661 0.405403 -0.106872
v -0.108692 0.412037 -0.106872
v -0.039742 0.414525 -0.106872
v -0.039742 0.414525 0.106872
v 0.147414 -0.100000 0.100000
v 0.126916 0.000000 0.100000
v 0.126916 0.100000 0.100000
v 0.126916 0.100000 -0.100000
v 0.126916 0.000000 -0.100000
v 0.147414 -0.100000 -0.100000
v 0.272612 -0.478543 0.162943
v 0.272612 -0.478543 -0.162943
v 0.197431 -0.220978 -0.100000
v 0.197431 -0.220978 0.100000
v 0.229871 -0.280816 -0.100000
v 0.229871 -0.280816 0.100000
v 0.235899 -0.365709 -0.100000
v 0.235899 -0.365709 0.100000
v 0.271378 -0.388993 -0.160012
v 0.271378 -0.388993 0.160012
v 0.137543 0.185855 0.100000
v 0.137543 0.185855 -0.100000
v 0.189661 0.271710 0.106872
v 0.189661 0.271710 -0.106872
v 0.045647 0.341257 0.106872
v 0.108692 0.341257 0.106872
v 0.189661 0.341257 0.106872
v 0.189661 0.341257 -0.106872
v 0.108692 0.341257 -0.106872
v 0.045647 0.341257 -0.106872
v 0.108692 0.412037 0.106872
v 0.189661 0.405403 0.106872
v 0.189661 0.405403 -0.106872
v 0.108692 0.412037 -0.106872
v 0.039742 0.414525 -0.106872
v 0.039742 0.414525 0.106872
v -0.154765 0.229246 0.100000
v -0.154765 0.229246 -0.100000
v 0.154765 0.229246 -0.100000
v 0.154765 0.229246 0.100000
v 0.045647 0.377891 0.106872
v -0.045647 0.377891 0.106872
v -0.045647 0.377891 -0.106872
v 0.045647 0.377891 -0.106872
vt 0.007810 0.007810
vt 0.101560 0.007810
vt 0.101560 0.101560
vt 0.007810 0.101560
vt 0.117180 0.007810
vt 0.210930 0.007810
vt 0.210930 0.101560
vt 0.117180 0.101560
vt 0.226560 0.007810
vt 0.320310 0.007810
vt 0.320310 0.101560
vt 0.226560 0.101560
vt 0.335930 0.007810
vt 0.429680 0.007810
vt 0.429680 0.101560
vt 0.335930 0.101560
vt 0.445310 0.007810
vt 0.539060 0.007810
vt 0.539060 0.101560
vt 0.445310 0.101560
vt 0.554680 0.007810
vt 0.648430 0.007810
vt 0.648430 0.101560
vt 0.554680 0.101560
vt 0.664060 0.007810
vt 0.757810 0.007810
vt 0.757810 0.101560
vt 0.664060 0.101560
vt 0.773430 0.007810
vt 0.867180 0.007810
vt 0.867180 0.101560
vt 0.773430 0.101560
vt 0.882810 0.007810
vt 0.976560 0.007810
vt 0.976560 0.101560
vt 0.882810 0.101560
vt 0.007810 0.117180
vt 0.101560 0.117180
vt 0.101560 0.210930
vt 0.007810 0.210930
vt 0.117180 0.117180
vt 0.210930 0.117180
vt 0.210930 0.210930
vt 0.117180 0.210930
vt 0.226560 0.117180
vt 0.320310 0.117180
vt 0.320310 0.210930
vt 0.226560 0.210930
vt 0.335930 0.117180
vt 0.429680 0.117180
vt 0.429680 0.210930
vt 0.335930 0.210930
vt 0.445310 0.117180
vt 0.539060 0.117180
vt 0.539060 0.210930
vt 0.445310 0.210930
vt 0.554680 0.117180
vt 0.648430 0.117180
vt 0.648430 0.210930
vt 0.554680 0.210930
vt 0.664060 0.117180
vt 0.757810 0.117180
vt 0.757810 0.210930
vt 0.664060 0.210930
vt 0.773430 0.117180
vt 0.867180 0.117180
vt 0.867180 0.210930
vt 0.773430 0.210930
vt 0.882810 0.117180
vt 0.976560 0.117180
vt 0.976560 0.210930
vt 0.882810 0.210930
vt 0.007810 0.226560
vt 0.101560 0.226560
vt 0.101560 0.320310
vt 0.007810 0.320310
vt 0.117180 0.226560
vt 0.210930 0.226560
vt 0.210930 0.320310
vt 0.117180 0.320310
vt 0.226560 0.226560
vt 0.320310 0.226560
vt 0.320310 0.320310
vt 0.226560 0.320310
vt 0.335930 0.226560
vt 0.429680 0.226560
vt 0.429680 0.320310
vt 0.335930 0.320310
vt 0.445310 0.226560
vt 0.539060 0.226560
vt 0.539060 0.320310
vt 0.445310 0.320310
vt 0.554680 0.226560
vt 0.648430 0.226560
vt 0.648430 0.320310
vt 0.554680 0.320310
vt 0.664060 0.226560
vt 0.757810 0.226560
vt 0.757810 0.320310
vt 0.664060 0.320310
vt 0.773430 0.226560
vt 0.867180 0.226560
vt 0.867180 0.320310
vt 0.773430 0.320310
vt 0.882810 0.226560
vt 0.976560 0.226560
vt 0.976560 0.320310
vt 0.882810 0.320310
vt 0.007810 0.335930
vt 0.101560 0.335930
vt 0.101560 0.429680
vt 0.007810 0.429680
vt 0.117180 0.335930
vt 0.210930 0.335930
vt 0.210930 0.429680
vt 0.117180 0.429680
vt 0.226560 0.335930
vt 0.320310 0.335930
vt 0.320310 0.429680
vt 0.226560 0.429680
vt 0.335930 0.335930
vt 0.429680 0.335930
vt 0.429680 0.429680
vt 0.335930 0.429680
vt 0.445310 0.335930
vt 0.539060 0.335930
vt 0.539060 0.429680
vt 0.445310 0.429680
vt 0.554680 0.335930
vt 0.648430 0.335930
vt 0.648430 0.429680
vt 0.554680 0.429680
vt 0.664060 0.335930
vt 0.757810 0.335930
vt 0.757810 0.429680
vt 0.664060 0.429680
vt 0.773430 0.335930
vt 0.867180 0.335930
vt 0.867180 0.429680
vt 0.773430 0.429680
vt 0.882810 0.335930
vt 0.976560 0.335930
vt 0.976560 0.429680
vt 0.882810 0.429680
vt 0.007810 0.445310
vt 0.101560 0.445310
vt 0.101560 0.539060
vt 0.007810 0.539060
vt 0.117180 0.445310
vt 0.210930 0.445310
vt 0.210930 0.539060
vt 0.117180 0.539060
vt 0.226560 0.445310
vt 0.320310 0.445310
vt 0.320310 0.539060
vt 0.226560 0.539060
vt 0.335930 0.445310
vt 0.429680 0.445310
vt 0.429680 0.539060
vt 0.335930 0.539060
vt 0.445310 0.445310
vt 0.539060 0.445310
vt 0.539060 0.539060
vt 0.445310 0.539060
vt 0.554680 0.445310
vt 0.648430 0.445310
vt 0.648430 0.539060
vt 0.554680 0.539060
vt 0.664060 0.445310
vt 0.757810 0.445310
vt 0.757810 0.539060
vt 0.664060 0.539060
vt 0.773430 0.445310
vt 0.867180 0.445310
vt 0.867180 0.539060
vt 0.773430 0.539060
vt 0.882810 0.445310
vt 0.976560 0.445310
vt 0.976560 0.539060
vt 0.882810 0.539060
vt 0.007810 0.554680
vt 0.101560 0.554680
vt 0.101560 0.648430
vt 0.007810 0.648430
vt 0.117180 0.554680
vt 0.210930 0.554680
vt 0.210930 0.648430
vt 0.117180 0.648430
vt 0.226560 0.554680
vt 0.320310 0.554680
vt 0.320310 0.648430
vt 0.226560 0.648430
vt 0.335930 0.554680
vt 0.429680 0.554680
vt 0.429680 0.648430
vt 0.335930 0.648430
vt 0.445310 0.554680
vt 0.539060 0.554680
vt 0.539060 0.648430
vt 0.445310 0.648430
vt 0.554680 0.554680
vt 0.648430 0.554680
vt 0.648430 0.648430
vt 0.554680 0.648430
vt 0.664060 0.554680
vt 0.757810 0.554680
vt 0.757810 0.648430
vt 0.664060 0.648430
vt 0.773430 0.554680
vt 0.867180 0.554680
vt 0.867180 0.648430
vt 0.773430 0.648430
vt 0.882810 0.554680
vt 0.976560 0.554680
vt 0.976560 0.648430
vt 0.882810 0.648430
vt 0.007810 0.664060
vt 0.101560 0.664060
vt 0.101560 0.757810
vt 0.007810 0.757810
vt 0.117180 0.664060
vt 0.210930 0.664060
vt 0.210930 0.757810
vt 0.117180 0.757810
vt 0.226560 0.664060
vt 0.320310 0.664060
vt 0.320310 0.757810
vt 0.226560 0.757810
vt 0.335930 0.664060
vt 0.429680 0.664060
vt 0.429680 0.757810
vt 0.335930 0.757810
vt 0.445310 0.664060
vt 0.539060 0.664060
vt 0.539060 0.757810
vt 0.445310 0.757810
vt 0.554680 0.664060
vt 0.648430 0.664060
vt 0.648430 0.757810
vt 0.554680 0.757810
vt 0.664060 0.664060
vt 0.757810 0.664060
vt 0.757810 0.757810
vt 0.664060 0.757810
vt 0.773430 0.664060
vt 0.867180 0.664060
vt 0.867180 0.757810
vt 0.773430 0.757810
vt 0.882810 0.664060
vt 0.976560 0.664060
vt 0.976560 0.757810
vt 0.882810 0.757810
vt 0.007810 0.773430
vt 0.101560 0.773430
vt 0.101560 0.867180
vt 0.007810 0.867180
vt 0.117180 0.773430
vt 0.210930 0.773430
vt 0.210930 0.867180
vt 0.117180 0.867180
vt 0.226560 0.773430
vt 0.320310 0.773430
vt 0.320310 0.867180
vt 0.226560 0.867180
vt 0.335930 0.773430
vt 0.429680 0.773430
vt 0.429680 0.867180
vt 0.335930 0.867180
vt 0.445310 0.773430
vt 0.539060 0.773430
vt 0.539060 0.867180
vt 0.445310 0.867180
vt 0.554680 0.773430
vt 0.648430 0.773430
vt 0.648430 0.867180
vt 0.554680 0.867180
vt 0.664060 0.773430
vt 0.757810 0.773430
vt 0.757810 0.867180
vt 0.664060 0.867180
vn 0.000000 0.000000 1.000000
vn 0.000000 0.000000 1.000000
vn 0.000000 0.000000 1.000000
vn 0.000000 0.000000 1.000000
vn 0.000000 0.000000 1.000000
vn 0.000000 0.000000 1.000000
vn 0.000000 0.000000 -1.000000
vn 0.000000 0.000000 -1.000000
vn 0.000000 0.000000 -1.000000
vn 0.000000 0.000000 -1.000000
vn 0.000000 0.000000 -1.000000
vn 0.000000 0.000000 -1.000000
vn 0.000000 -1.000000 0.000000
vn 0.000000 -1.000000 0.000000
vn 0.000000 -1.000000 0.000000
vn 0.000000 -1.000000 0.000000
vn -0.994895 0.100918 0.000000
vn -0.956187 0.292757 0.000000
vn -0.956187 0.292757 0.000000
vn -0.994895 0.100918 0.000000
vn -0.998105 -0.061537 0.000000
vn -0.998105 -0.061537 0.000000
vn 0.000000 0.000000 -1.000000
vn 0.000000 0.000000 -1.000000
vn -0.902865 0.429925 0.000000
vn -0.902865 0.429925 0.000000
vn 0.000000 0.000000 -1.000000
vn 0.000000 0.000000 -1.000000
vn -0.959989 0.280039 0.000000
vn -0.959989 0.280039 0.000000
vn 0.000000 0.000000 -1.000000
vn 0.000000 0.000000 -1.000000
vn -0.997488 0.070829 0.000000
vn -0.997488 0.070829 0.000000
vn -0.290842 0.937361 -0.191741
vn -0.290842 0.937361 -0.191741
vn 0.290842 0.937362 -0.191741
vn 0.290842 0.937362 -0.191741
vn -0.290842 0.937361 0.191741
vn -0.290842 0.937361 0.191741
vn 0.000000 0.032713 -0.999465
vn 0.000000 0.032713 -0.999465
vn 0.000000 0.032713 -0.999465
vn 0.000000 0.032713 -0.999465
vn -0.999905 0.013779 0.000000
vn -0.999905 0.013779 0.000000
vn -0.999905 0.013779 0.000000
vn -0.999905 0.013779 0.000000
vn 0.000000 0.000000 1.000000
vn 0.000000 0.000000 1.000000
vn -0.968790 -0.247881 0.000000
vn -0.968790 -0.247881 0.000000
vn 0.000000 -0.080134 0.996784
vn 0.000000 -0.080134 0.996784
vn -0.861359 -0.507996 0.000000
vn -0.861359 -0.507996 0.000000
vn 0.000000 0.000000 1.000000
vn 0.000000 0.000000 1.000000
vn 0.000000 0.000000 1.000000
vn 0.000000 0.000000 1.000000
vn -1.000000 0.000000 0.000000
vn -1.000000 0.000000 0.000000
vn -1.000000 0.000000 0.000000
vn -1.000000 0.000000 0.000000
vn 0.000000 1.000000 0.000000
vn 0.000000 1.000000 0.000000
vn 0.000000 1.000000 0.000000
vn 0.000000 1.000000 0.000000
vn 0.000000 0.000000 1.000000
vn 0.000000 0.000000 1.000000
vn 0.000000 0.000000 1.000000
vn 0.000000 0.000000 1.000000
vn 0.000000 0.000000 -1.000000
vn 0.000000 0.000000 -1.000000
vn 0.000000 0.000000 -1.000000
vn 0.000000 0.000000 -1.000000
vn -1.000000 0.000000 0.000000
vn -1.000000 0.000000 0.000000
vn -1.000000 0.000000 0.000000
vn -1.000000 0.000000 0.000000
vn 0.000000 0.000000 1.000000
vn 0.000000 0.000000 1.000000
vn 0.000000 0.000000 1.000000
vn 0.000000 0.000000 1.000000
vn -1.000000 0.000000 0.000000
vn -1.000000 0.000000 0.000000
vn -0.996809 0.079822 0.000000
vn -0.996809 0.079822 0.000000
vn 1.000000 0.000000 0.000000
vn 1.000000 0.000000 0.000000
vn 1.000000 0.000000 0.000000
vn 1.000000 0.000000 0.000000
vn -0.081659 0.996660 0.000000
vn -0.081659 0.996660 0.000000
vn -0.081659 0.996660 0.000000
vn -0.081659 0.996660 0.000000
vn 0.000000 1.000000 0.000000
vn 0.000000 1.000000 0.000000
vn 0.000000 1.000000 0.000000
vn 0.000000 1.000000 0.000000
vn 0.994895 0.100918 0.000000
vn 0.994895 0.100918 0.000000
vn 0.956187 0.292757 0.000000
vn 0.956187 0.292757 0.000000
vn 0.998105 -0.061537 0.000000
vn 0.998105 -0.061537 0.000000
vn 0.000000 0.000000 1.000000
vn 0.000000 0.000000 1.000000
vn 0.902865 0.429925 0.000000
vn 0.902865 0.429925 0.000000
vn 0.000000 0.000000 1.000000
vn 0.000000 0.000000 1.000000
vn 0.959989 0.280039 0.000000
vn 0.959989 0.280039 0.000000
vn 0.000000 0.000000 1.000000
vn 0.000000 0.000000 1.000000
vn 0.997488 0.070829 0.000000
vn 0.997488 0.070829 0.000000
vn 0.290842 0.937362 0.191741
vn 0.290842 0.937362 0.191741
vn 0.000000 0.032713 0.999465
vn 0.000000 0.032713 0.999465
vn 0.000000 0.032713 0.999465
vn 0.000000 0.032713 0.999465
vn 0.999905 0.013779 0.000000
vn 0.999905 0.013779 0.000000
vn 0.999905 0.013779 0.000000
vn 0.999905 0.013779 0.000000
vn 0.000000 0.000000 -1.000000
vn 0.000000 0.000000 -1.000000
vn 0.968790 -0.247881 0.000000
vn 0.968790 -0.247881 0.000000
vn 0.000000 -0.080134 -0.996784
vn 0.000000 -0.080134 -0.996784
vn 0.861359 -0.507996 0.000000
vn 0.861359 -0.507996 0.000000
vn 1.000000 0.000000 0.000000
vn 1.000000 0.000000 0.000000
vn 1.000000 0.000000 0.000000
vn 1.000000 0.000000 0.000000
vn 0.000000 0.000000 -1.000000
vn 0.000000 0.000000 -1.000000
vn 0.000000 0.000000 -1.000000
vn 0.000000 0.000000 -1.000000
vn 0.000000 1.000000 0.000000
vn 0.000000 1.000000 0.000000
vn 0.000000 1.000000 0.000000
vn 0.000000 1.000000 0.000000
vn 0.000000 0.000000 1.000000
vn 0.000000 0.000000 1.000000
vn 0.000000 0.000000 1.000000
vn 0.000000 0.000000 1.000000
vn 0.000000 0.000000 -1.000000
vn 0.000000 0.000000 -1.000000
vn 0.000000 0.000000 -1.000000
vn 0.000000 0.000000 -1.000000
vn 1.000000 0.000000 0.000000
vn 1.000000 0.000000 0.000000
vn 1.000000 0.000000 0.000000
vn 1.000000 0.000000 0.000000
vn 0.000000 0.000000 -1.000000
vn 0.000000 0.000000 -1.000000
vn 0.000000 0.000000 -1.000000
vn 0.000000 0.000000 -1.000000
vn 0.996809 0.079822 0.000000
vn 0.996809 0.079822 0.000000
vn 0.987257 0.159135 0.000000
vn 0.987257 0.159135 0.000000
vn -1.000000 0.000000 0.000000
vn -1.000000 0.000000 0.000000
vn -1.000000 0.000000 0.000000
vn -1.000000 0.000000 0.000000
vn 0.081659 0.996660 0.000000
vn 0.081659 0.996660 0.000000
vn 0.081659 0.996660 0.000000
vn 0.081659 0.996660 0.000000
vn 0.000000 0.000000 1.000000
vn 0.000000 0.000000 1.000000
vn 0.000000 0.000000 1.000000
vn 0.000000 0.000000 1.000000
vn 0.000000 0.000000 1.000000
vn 0.000000 0.000000 1.000000
vn 0.000000 0.000000 1.000000
vn 0.000000 0.000000 1.000000
vn 0.000000 0.000000 -1.000000
vn 0.000000 0.000000 -1.000000
vn 0.000000 0.000000 -1.000000
vn 0.000000 0.000000 -1.000000
vn 0.000000 0.000000 -1.000000
vn 0.000000 0.000000 -1.000000
vn 0.000000 0.000000 -1.000000
vn 0.000000 0.000000 -1.000000
vn -0.772594 -0.634901 0.000000
vn -0.772594 -0.634901 0.000000
vn 0.000000 -0.159753 -0.987157
vn 0.000000 -0.159753 -0.987157
vn 0.772594 -0.634901 0.000000
vn 0.772594 -0.634901 0.000000
vn 0.000000 -0.159753 0.987157
vn 0.000000 -0.159753 0.987157
vn 0.000000 0.000000 1.000000
vn 0.000000 0.000000 1.000000
vn 0.000000 0.000000 1.000000
vn 0.000000 0.000000 1.000000
vn -0.987257 0.159135 0.000000
vn -0.987257 0.159135 0.000000
vn 0.000000 0.000000 -1.000000
vn 0.000000 0.000000 -1.000000
vn 0.000000 0.000000 -1.000000
vn 0.000000 0.000000 -1.000000
vn 1.000000 0.000000 0.000000
vn 1.000000 0.000000 0.000000
s 1
f 2/1/1 1/2/2 33/3/3 34/4/4
f 3/5/5 2/6/1 34/7/4 35/8/6
s 2
f 5/9/7 4/10/8 36/11/9 37/12/10
f 6/13/11 5/14/7 37/15/10 38/16/12
s off
f 16/17/13 15/18/14 40/19/15 39/20/16
s 3
f 5/21/17 6/22/18 1/23/19 2/24/20
f 3/25/21 4/26/22 5/27/17 2/28/20
s 2
f 7/29/23 6/30/11 38/31/12 41/32/24
s 3
f 7/33/25 8/34/26 1/35/19 6/36/18
s 2
f 9/37/27 7/38/23 41/39/24 43/40/28
s 3
f 9/41/29 10/42/30 8/43/26 7/44/25
s 2
f 11/45/31 9/46/27 43/47/28 45/48/32
s 3
f 11/49/33 12/50/34 10/51/30 9/52/29
s 4
f 13/53/35 11/54/36 45/55/37 47/56/38
f 13/57/35 14/58/39 12/59/40 11/60/36
s off
f 13/61/41 47/62/42 40/63/43 15/64/44
f 14/65/45 13/66/46 15/67/47 16/68/48
s 1
f 17/69/49 3/70/5 35/71/6 49/72/50
s 3
f 17/73/51 18/74/52 4/75/22 3/76/21
s 1
f 68/77/53 65/78/54 17/79/49 49/80/50
s 3
f 65/81/55 66/82/56 18/83/52 17/84/51
s off
f 53/85/57 51/86/58 55/87/59 54/88/60
f 21/89/61 22/90/62 20/91/63 19/92/64
f 23/93/65 26/94/66 25/95/67 24/96/68
f 21/97/69 23/98/70 28/99/71 27/100/72
f 24/101/73 22/102/74 29/103/75 30/104/76
f 22/105/77 21/106/78 27/107/79 29/108/80
f 70/109/81 26/110/82 53/111/83 69/112/84
s 5
f 25/113/85 26/114/86 70/115/87 71/116/88
s off
f 23/117/89 24/118/90 30/119/91 28/120/92
f 27/121/93 28/122/94 30/123/95 29/124/96
f 31/125/97 32/126/98 64/127/99 63/128/100
s 6
f 37/129/101 34/130/102 33/131/103 38/132/104
f 35/133/105 34/134/102 37/135/101 36/136/106
s 1
f 8/137/107 42/138/108 33/139/3 1/140/2
s 6
f 41/141/109 38/142/104 33/143/103 42/144/110
s 1
f 10/145/111 44/146/112 42/147/108 8/148/107
s 6
f 43/149/113 41/150/109 42/151/110 44/152/114
s 1
f 12/153/115 46/154/116 44/155/112 10/156/111
s 6
f 45/157/117 43/158/113 44/159/114 46/160/118
s 4
f 14/161/39 48/162/119 46/163/120 12/164/40
f 47/165/38 45/166/37 46/167/120 48/168/119
s off
f 48/169/121 14/170/122 16/171/123 39/172/124
f 47/173/125 48/174/126 39/175/127 40/176/128
s 2
f 18/177/129 50/178/130 36/179/9 4/180/8
s 6
f 49/181/131 35/182/105 36/183/106 50/184/132
s 2
f 66/185/133 67/186/134 50/187/130 18/188/129
s 6
f 68/189/135 49/190/131 50/191/132 67/192/136
s off
f 55/193/137 51/194/138 52/195/139 56/196/140
f 25/197/141 20/198/142 22/199/143 24/200/144
f 54/201/145 57/202/146 58/203/147 53/204/148
f 55/205/149 60/206/150 59/207/151 54/208/152
f 57/209/153 62/210/154 61/211/155 56/212/156
f 56/213/157 61/214/158 60/215/159 55/216/160
f 71/217/161 72/218/162 58/219/163 25/220/164
s 7
f 69/221/165 72/222/166 63/223/167 64/224/168
s off
f 54/225/169 59/226/170 62/227/171 57/228/172
f 60/229/173 61/230/174 62/231/175 59/232/176
f 26/233/177 23/234/178 21/235/179 19/236/180
f 26/237/181 19/238/182 51/239/183 53/240/184
f 25/241/185 58/242/186 52/243/187 20/244/188
f 52/245/189 58/246/190 57/247/191 56/248/192
s 3
f 19/249/193 20/250/194 66/251/56 65/252/55
s 2
f 20/253/195 52/254/196 67/255/134 66/256/133
s 6
f 51/257/197 68/258/135 67/259/136 52/260/198
s 1
f 19/261/199 65/262/54 68/263/53 51/264/200
s off
f 32/265/201 70/266/202 69/267/203 64/268/204
s 5
f 71/269/88 70/270/87 32/271/205 31/272/206
s off
f 31/273/207 63/274/208 72/275/209 71/276/210
s 7
f 58/277/211 72/278/166 69/279/165 53/280/212